<svg data-name="Слой 1" xmlns="http://www.w3.org/2000/svg" viewBox="0 0 309.33 246.67"><g fill="#009ecc"><path d="M28.18 33.41a4.41 4.41 0 1 0-3.11-1.29 4.42 4.42 0 0 0 3.11 1.29M42.28 33.41a4.41 4.41 0 1 0-3.11-1.29 4.42 4.42 0 0 0 3.11 1.29M56.37 33.41a4.41 4.41 0 1 0-3.11-1.29 4.42 4.42 0 0 0 3.11 1.29M75.15 33.41h178.48a4.41 4.41 0 0 0 0-8.82H75.15a4.41 4.41 0 0 0 0 8.82M272.42 33.41h9.39a4.41 4.41 0 0 0 0-8.82h-9.39a4.41 4.41 0 0 0 0 8.82M150.31 104.55h9.39a18.53 18.53 0 0 1 18.49 18.52v28.22a18.53 18.53 0 0 1-18.49 18.52h-9.39a18.53 18.53 0 0 1-18.49-18.52v-28.22a18.53 18.53 0 0 1 18.49-18.52zM159.7 161a9.71 9.71 0 0 0 9.69-9.7v-28.23a9.71 9.71 0 0 0-9.69-9.7h-9.39a9.7 9.7 0 0 0-9.69 9.7v28.22a9.71 9.71 0 0 0 9.69 9.7zM122.13 146.88h-5V109a4.4 4.4 0 1 0-8.81 0v37.92H86l12.16-36.53a4.4 4.4 0 1 0-8.35-2.79l-14.13 42.3a4.41 4.41 0 0 0 4.18 5.8h28.47v9.7a4.4 4.4 0 1 0 8.81 0v-9.7h5a4.41 4.41 0 0 0 0-8.82M230.14 146.88h-5V109a4.4 4.4 0 1 0-8.81 0v37.92H194l12.16-36.53a4.4 4.4 0 1 0-8.35-2.79l-14.12 42.3a4.41 4.41 0 0 0 4.18 5.8h28.47v9.7a4.4 4.4 0 1 0 8.81 0v-9.7h5a4.41 4.41 0 0 0 0-8.82"/><path d="M281.81 5.78H28.19A23.23 23.23 0 0 0 5 29v188.14a23.23 23.23 0 0 0 23.19 23.22h253.62A23.23 23.23 0 0 0 305 217.14V29a23.23 23.23 0 0 0-23.19-23.22zm14.38 211.36a14.41 14.41 0 0 1-14.38 14.4H28.19a14.41 14.41 0 0 1-14.38-14.4V52.23h282.38zm0-173.73H13.81V29a14.41 14.41 0 0 1 14.38-14.4h253.62A14.41 14.41 0 0 1 296.19 29z"/></g></svg>