<svg data-name="Слой 1" xmlns="http://www.w3.org/2000/svg" viewBox="0 0 471.75 290.71"><g fill="#00aed6"><path d="M403.52 193H272.35v-6.73a.5.5 0 0 0-.5-.5h-12.48v-18.45a.5.5 0 0 0-.5-.5H251v-20.7h2.1a.5.5 0 0 0 .5-.5V141a.5.5 0 0 0-.5-.5h-5.6v-8a.5.5 0 0 0-.5-.5h-3.79L241 94h2.62a.5.5 0 0 0 .5-.5v-4.44a.5.5 0 0 0-.5-.5h-3.61l-2.13-34.12 2.12 1.08a.5.5 0 0 0 .73-.53l-.78-4.57 3.32-3.24a.5.5 0 0 0-.28-.85l-4.59-.67-2.05-4.16a.52.52 0 0 0-.9 0l-2.05 4.16-4.59.67a.5.5 0 0 0-.28.85l3.32 3.24L231 55a.5.5 0 0 0 .73.53l2.06-1.08-2.13 34.12h-3.61a.5.5 0 0 0-.5.5v4.45a.5.5 0 0 0 .5.5h2.62L228.54 132h-3.79a.5.5 0 0 0-.5.5v8h-5.62a.5.5 0 0 0-.5.5v4.63a.5.5 0 0 0 .5.5h2.1v20.7h-7.84a.5.5 0 0 0-.5.5v18.42H199.9a.5.5 0 0 0-.5.5V193H68.23a.5.5 0 0 0-.5.5v12.05a.5.5 0 0 0 .5.5h3.21V249a.5.5 0 0 0 .5.5h327.87a.5.5 0 0 0 .5-.5v-43h3.21a.5.5 0 0 0 .5-.5v-12.03a.5.5 0 0 0-.5-.47zM232.71 49.89l-2.79-2.72 3.85-.56a.5.5 0 0 0 .38-.27l1.72-3.49 1.72 3.49a.5.5 0 0 0 .38.27l3.85.56-2.82 2.72a.5.5 0 0 0-.14.44l.66 3.84-1.74-.91a.49.49 0 0 0-.49-.3h-.05l-1.17-.61a.5.5 0 0 0-.47 0l-1.17.61h-.05a.48.48 0 0 0-.49.3l-1.74.91.66-3.84a.5.5 0 0 0-.1-.44zm-1.11 43.28a.5.5 0 0 0-.36-.16h-2.65v-3.45h3.58a.5.5 0 0 0 .5-.47l2.2-35.2 1-.53 1 .53 2.2 35.2a.5.5 0 0 0 .5.47h3.58V93h-2.65a.5.5 0 0 0-.5.53l2.2 38.47h-12.66l2.19-38.42a.5.5 0 0 0-.13-.41zM225.25 133h21.25v7.53h-21.25zm-6.12 8.53h33.49v3.64h-33.49zm2.6 4.64H250v20.7h-28.3zm-.5 21.7h37.15v17.92h-4.5v-7.29a.5.5 0 0 0-.5-.5h-6.92a.5.5 0 0 0-.5.5v7.29h-6.11v-7.29a.5.5 0 0 0-.5-.5h-6.92a.5.5 0 0 0-.5.5v7.29h-6.13v-7.29a.5.5 0 0 0-.5-.5h-6.92a.5.5 0 0 0-.5.5v7.29h-4.5v-17.97zm25.72 17.92V179h5.92v6.79zm152.36 43h-6.79v-16.41a.5.5 0 0 0-.5-.5h-9.64a.5.5 0 0 0-.5.5v16.38h-5.82v-16.38a.5.5 0 0 0-.5-.5h-9.64a.5.5 0 0 0-.5.5v16.38h-5.82v-16.38a.5.5 0 0 0-.5-.5h-9.64a.5.5 0 0 0-.5.5v16.38h-5.82v-16.38a.5.5 0 0 0-.5-.5H333a.5.5 0 0 0-.5.5v16.38h-5.81v-16.38a.5.5 0 0 0-.5-.5h-9.64a.5.5 0 0 0-.5.5v16.38h-17v-14.57a5.32 5.32 0 1 0-10.64 0v14.56h-8.64v-17.08a5.32 5.32 0 1 0-10.64 0v17.09h-8.64V208a5.32 5.32 0 1 0-10.64 0v20.81h-8.64V208a5.32 5.32 0 1 0-10.64 0v20.81h-8.64V208a5.32 5.32 0 1 0-10.64 0v20.81h-8.64v-17.14a5.32 5.32 0 1 0-10.64 0v17.09h-8.64v-14.57a5.32 5.32 0 1 0-10.64 0v14.56h-17v-16.37a.5.5 0 0 0-.5-.5h-9.64a.5.5 0 0 0-.5.5v16.38h-5.82v-16.38a.5.5 0 0 0-.5-.5h-9.67a.5.5 0 0 0-.5.5v16.38h-5.81v-16.38a.5.5 0 0 0-.5-.5h-9.64a.5.5 0 0 0-.5.5v16.38h-5.82v-16.38a.5.5 0 0 0-.5-.5h-9.65a.5.5 0 0 0-.5.5v16.38h-5.81v-16.38a.5.5 0 0 0-.5-.5h-9.64a.5.5 0 0 0-.5.5v16.38h-6.79V206h84.74l78.7-19.26L314.57 206h84.74zm-16.43 0v-15.91h8.64v15.88zm-16.46 0v-15.91h8.64v15.88zm-16.46 0v-15.91h8.64v15.88zm-16.46 0v-15.91h8.64v15.88zm-16.46 0v-15.91h8.64v15.88zm-19 0h-8.64v-14.6a4.32 4.32 0 1 1 8.64 0zm-19.29 0h-8.64v-17.12a4.32 4.32 0 1 1 8.64 0zm-19.29 0h-8.64V208a4.32 4.32 0 1 1 8.64 0zm-23.61 0h-4.32V208a4.32 4.32 0 1 1 8.64 0v20.81zm-15 0h-8.64V208a4.32 4.32 0 1 1 8.64 0zm-19.29 0H193v-17.12a4.32 4.32 0 1 1 8.64 0zm-19.29 0h-8.64v-14.6a4.32 4.32 0 1 1 8.64 0zm-36.27 0v-15.91h8.64v15.88zm-16.46 0v-15.91h8.64v15.88zm-16.46 0v-15.91h8.64v15.88zm-16.46 0v-15.91h8.64v15.88zm-16.46 0v-15.91h8.64v15.88zm158.61-43h-5.92V179h5.92zm-20 0V179h5.92v6.79zM68.73 194H199.9a.5.5 0 0 0 .5-.5v-6.73h31.33L157 205H68.73zm3.71 54.53v-18.77h326.87v18.74zM403 205h-88.25L240 186.73h31.33v6.73a.5.5 0 0 0 .5.5H403z"/><path d="M229.38 147h-5.19a.5.5 0 0 0-.5.5v17.06a.5.5 0 0 0 .5.5h5.19a.5.5 0 0 0 .5-.5v-17.08a.5.5 0 0 0-.5-.48zm-.5 17.06h-4.19V148h4.19zM239 164.54v-17.06a.5.5 0 0 0-.5-.5h-5.19a.5.5 0 0 0-.5.5v17.06a.5.5 0 0 0 .5.5h5.19a.5.5 0 0 0 .5-.5zm-1-.5h-4.19V148H238zM218.38 174.93h6.92a.5.5 0 0 0 0-1h-6.92a.5.5 0 1 0 0 1zM232.41 174.93h6.92a.5.5 0 0 0 0-1h-6.92a.5.5 0 0 0 0 1zM89.37 233.58h-9.64a.5.5 0 0 0-.5.5v9.83a.5.5 0 0 0 .5.5h9.64a.5.5 0 0 0 .5-.5v-9.83a.5.5 0 0 0-.5-.5zm-.5 9.83h-8.64v-8.83h8.64zM105.83 233.58h-9.65a.5.5 0 0 0-.5.5v9.83a.5.5 0 0 0 .5.5h9.64a.5.5 0 0 0 .5-.5v-9.83a.5.5 0 0 0-.49-.5zm-.5 9.83h-8.65v-8.83h8.64zM122.29 233.58h-9.64a.5.5 0 0 0-.5.5v9.83a.5.5 0 0 0 .5.5h9.64a.5.5 0 0 0 .5-.5v-9.83a.5.5 0 0 0-.5-.5zm-.5 9.83h-8.64v-8.83h8.64zM138.74 233.58h-9.64a.5.5 0 0 0-.5.5v9.83a.5.5 0 0 0 .5.5h9.64a.5.5 0 0 0 .5-.5v-9.83a.5.5 0 0 0-.5-.5zm-.5 9.83h-8.64v-8.83h8.64zM155.2 233.58h-9.64a.5.5 0 0 0-.5.5v9.83a.5.5 0 0 0 .5.5h9.64a.5.5 0 0 0 .5-.5v-9.83a.5.5 0 0 0-.5-.5zm-.5 9.83h-8.64v-8.83h8.64zM182.83 233.58h-9.64a.5.5 0 0 0-.5.5v9.83a.5.5 0 0 0 .5.5h9.64a.5.5 0 0 0 .5-.5v-9.83a.5.5 0 0 0-.5-.5zm-.5 9.83h-8.64v-8.83h8.64zM202.12 233.58h-9.64a.5.5 0 0 0-.5.5v9.83a.5.5 0 0 0 .5.5h9.64a.5.5 0 0 0 .5-.5v-9.83a.5.5 0 0 0-.5-.5zm-.5 9.83H193v-8.83h8.64zM221.41 233.58h-9.64a.5.5 0 0 0-.5.5v9.83a.5.5 0 0 0 .5.5h9.64a.5.5 0 0 0 .5-.5v-9.83a.5.5 0 0 0-.5-.5zm-.5 9.83h-8.64v-8.83h8.64zM240.69 233.58h-9.64a.5.5 0 0 0-.5.5v9.83a.5.5 0 0 0 .5.5h9.64a.5.5 0 0 0 .5-.5v-9.83a.5.5 0 0 0-.5-.5zm-.5 9.83h-8.64v-8.83h8.64zM242.36 165h5.19a.5.5 0 0 0 .5-.5v-17.02a.5.5 0 0 0-.5-.5h-5.19a.5.5 0 0 0-.5.5v17.06a.5.5 0 0 0 .5.46zm.5-17.06h4.19V164h-4.19zM246.45 174.93h6.92a.5.5 0 0 0 0-1h-6.92a.5.5 0 0 0 0 1zM392 233.58h-9.64a.5.5 0 0 0-.5.5v9.83a.5.5 0 0 0 .5.5H392a.5.5 0 0 0 .5-.5v-9.83a.5.5 0 0 0-.5-.5zm-.5 9.83h-8.64v-8.83h8.64zM375.56 233.58h-9.64a.5.5 0 0 0-.5.5v9.83a.5.5 0 0 0 .5.5h9.64a.5.5 0 0 0 .5-.5v-9.83a.5.5 0 0 0-.5-.5zm-.5 9.83h-8.64v-8.83h8.64zM359.1 233.58h-9.64a.5.5 0 0 0-.5.5v9.83a.5.5 0 0 0 .5.5h9.64a.5.5 0 0 0 .5-.5v-9.83a.5.5 0 0 0-.5-.5zm-.5 9.83H350v-8.83h8.64zM342.64 233.58H333a.5.5 0 0 0-.5.5v9.83a.5.5 0 0 0 .5.5h9.64a.5.5 0 0 0 .5-.5v-9.83a.5.5 0 0 0-.5-.5zm-.5 9.83h-8.64v-8.83h8.64zM326.19 233.58h-9.64a.5.5 0 0 0-.5.5v9.83a.5.5 0 0 0 .5.5h9.64a.5.5 0 0 0 .5-.5v-9.83a.5.5 0 0 0-.5-.5zm-.5 9.83H317v-8.83h8.64zM298.55 233.58h-9.64a.5.5 0 0 0-.5.5v9.83a.5.5 0 0 0 .5.5h9.64a.5.5 0 0 0 .5-.5v-9.83a.5.5 0 0 0-.5-.5zm-.5 9.83h-8.64v-8.83h8.64zM279.27 233.58h-9.64a.5.5 0 0 0-.5.5v9.83a.5.5 0 0 0 .5.5h9.64a.5.5 0 0 0 .5-.5v-9.83a.5.5 0 0 0-.5-.5zm-.5 9.83h-8.64v-8.83h8.64zM260 233.58h-9.64a.5.5 0 0 0-.5.5v9.83a.5.5 0 0 0 .5.5H260a.5.5 0 0 0 .5-.5v-9.83a.5.5 0 0 0-.5-.5zm-.5 9.83h-8.64v-8.83h8.64z"/></g></svg>