<svg data-name="Слой 1" xmlns="http://www.w3.org/2000/svg" viewBox="0 0 471.75 290.71"><path d="M362 173.51c-14.71-16.42-39.82-38.11-76-48.14a151.73 151.73 0 0 0-36.18-5.43H249.52l-26.88 18.29L193 117.81a.5.5 0 0 0-.15-.07c-7.93-2.19-51.42-6.05-74.19 22l-.05.07a55.39 55.39 0 0 0-6.23 9.57c-4.74 9.21-2.2 18.72-.84 23.83l.25.94a.5.5 0 0 0 .48.37h249.37a.5.5 0 0 0 .5-.5.46.46 0 0 0 0-.06.49.49 0 0 0-.14-.45zm-21.9 0l-.07-.07q-4.68-2.84-9.44-5.56l-1.47-6.88 7.23-1.82q11.17 6.29 22 13.11l1.81 1.15zm-66.53 0l-6.66-4.6h53.72v4.6zm-14.76 0l-7-4.6h6l7 4.6zm-109 0l1.15-3.22h16.86l-1.15 3.22zm-4 0v-25.4l10.91 3.05-3.22 9a.48.48 0 0 0-.08.21l-4.7 13.15zm-23.67 0l5.05-17.88 8.15 7-3.82 10.92zm-3-32.86l10.43 2.92-2.91 10.29-10.56-9a59.06 59.06 0 0 1 3.09-4.25zm11.4 3.19L141 146.7l-5.19 14.85-8.2-7zm10.51 5.5v24.17h-8.45zm1-2.29l2.77.78v25.68h-2.72zm90.28 10.24l16.12 10.62h-23.21v-6.24a.5.5 0 0 0-.5-.5h-38.62v-1.81l5.51 1.54h.13zm-78 3.63h16.86l-1.4 3.91H153zm30.77 3.91h-14.22l1.4-3.91h12.85zm-32.52 1h16.86l-1.24 3.46h-16.84zm17.92 0h14.6v3.46h-15.82zm14.6-5.91h-12.47l1.41-3.94 11.08 3.1zm-13.55 0h-16.84l3-8.49 15.33 4.28zm-2.65 10.38h16.2v3.22h-17.33zm17.2-8.13h38.11v6.24a.5.5 0 0 0 .5.5H250l7 4.6h-70.88zm64.19 5.74L234 157.11l5.32-.48 17.05 11.23zm-9.41-11.38l5.6-.5 17.2 11.88h-5.53zm6.69-1l1.57-.86a59.21 59.21 0 0 1 34.49-6.93l7.44.76q8.82 4.08 17.48 8.51l-13 10.75a.48.48 0 0 0-.09.11h-30zm54.51 8.13h18.52v4.22H297zm1.21-1l6.23-5.15q4.9 2.52 9.73 5.15zm-11.49-15.24l-1.1-5.33 6.66-2.36 1.71 5.69zm7.56-1l1.74 5.8q-4.16-2-8.35-4zm1-.26l6.75-1.85.92 6.17-5.76 2zm7.82 5.33l.68 4.59q-2.82-1.44-5.65-2.84zm1.74 4.87l-.78-5.21 7-2.46 2 6.06zm8.48-.65l2.11 6.51q-4.73-2.58-9.52-5.05zm3.08 6.27l-2.09-6.46 7.2-1.42 1.36 6.25zm6.68-.65l1.28 5.89q-3.8-2.18-7.64-4.29zm-.46-6.83q3.72 2 7.4 4l-6.18 1.56zm-8.62.06l-1.79-5.56q4.1 2.08 8.17 4.23zM309 150.1l-.83-5.59q3.51 1.69 7 3.42zm-8.91-4.94l-1.56-5.16q3.79 1.72 7.55 3.51zm-9.54-4.06l-1.07-5.1q3.45 1.48 6.89 3zm-2.11-5.29l1.16 5.63-6.26 2.21-1.74-5.65zm-7.12 1.19l-1.53-5c2.53 1 5.06 2.07 7.57 3.13zm-1 .3l-6.6 2.09-1.42-5 6.34-2.59zm-8.29-3.92l-1.41-5 .25.09c2.24.86 4.5 1.75 6.74 2.65zm-.93.38l-5.86 2.39-2.4-5.78 6.69-2.2zm-8.64-4.31l-2-4.77c3 1.08 5.89 2.12 7.84 2.84zm-1 .31l-7 2.31-1.74-4.9 6.58-2.69zm-8.16 2.11q-3.23-1.18-6.48-2.31l4.94-2zm8.55-1.19l2.17 5.23q-4.19-1.63-8.4-3.19zm9.48 4l1.31 4.64q-3.18-1.31-6.37-2.58zm9.24 3.53l1.56 5.15q-3.78-1.65-7.58-3.24zm9.14 4.15l1 4.83q-3.21-1.48-6.44-2.91zm31.85 21.51q8.38 4.61 16.56 9.54h-16.48zm-35.86-37.6c33.92 9.41 58.06 29.16 73 45.07q-10.76-6.82-21.91-13.07a.49.49 0 0 0-.25-.14q-4.61-2.59-9.27-5.08a.5.5 0 0 0-.24-.13q-5.14-2.74-10.34-5.37h-.12q-4.38-2.2-8.79-4.32h-.07q-4.86-2.32-9.76-4.54-4.46-2-9-3.94c-3.23-1.38-6.49-2.73-9.76-4q-4-1.59-7.93-3.11l-1.08-.4a.51.51 0 0 0-.17-.06c-2-.73-6-2.19-10.15-3.67-2.24-.8-4.52-1.6-6.53-2.3a150.41 150.41 0 0 1 32.44 5.12zm-27.55-2.46l-5.79 2.37-1.78-5c2.22.82 4.92 1.72 7.64 2.69zm-8.64-2.66l1.92 5.4-6 2.47q-2.48-.85-5-1.68zm-10.13 6.89a489.24 489.24 0 0 1 48.79 19.1l-4.49-.46a60.24 60.24 0 0 0-35.07 7l-2 1.1-23.12-16zm-47-9.43l29.92 20.67 22.82 15.76-5.66.51a.49.49 0 0 0-.64.09l-6.23.56a.49.49 0 0 0-.64.09l-40.14 3.59-61.43-17.18-10.49-2.93c22.47-26.9 64.62-23.25 72.59-21.09zm-80 54.23c-1.33-5-3.79-14.25.76-23.12.74-1.45 1.54-2.82 2.37-4.15l10.8 9.23-5.25 18.6h-8.53zm154.2.57l-7-4.6h5.46l6.66 4.6z" fill="#35a8e0"/></svg>