<svg data-name="Слой 1" xmlns="http://www.w3.org/2000/svg" viewBox="0 0 227.67 118.82"><path d="M145.54 60.5a7 7 0 0 0-3.19.78 10 10 0 0 0-13.55-5.66 16.44 16.44 0 0 0-32.3-.85 11 11 0 0 0-17.25 9 5.24 5.24 0 0 0-1.25-.14 5.53 5.53 0 1 0 0 11.05h67.5a7.09 7.09 0 1 0 0-14.18zm0 13.18H78a4.53 4.53 0 1 1 0-9.05 4.48 4.48 0 0 1 1.57.3.5.5 0 0 0 .67-.5v-.14-.56A10 10 0 0 1 96.52 56a.5.5 0 0 0 .81-.31 15.44 15.44 0 0 1 30.57.7.5.5 0 0 0 .74.38 9 9 0 0 1 12.95 5.34.5.5 0 0 0 .74.28 6.08 6.08 0 1 1 3.21 11.24z" fill="#35a8e0"/></svg>