<svg data-name="Слой 1" xmlns="http://www.w3.org/2000/svg" viewBox="0 0 227.67 118.82"><g fill="#35a8e0"><path d="M80.8 70.75h-.91a18.86 18.86 0 0 0-36.79 4.96h-.28a9.89 9.89 0 1 0 0 19.78h19.12c2.19 0 6.46-.12 10.6-.23 3.51-.09 6.83-.18 8.26-.18a12.16 12.16 0 0 0 0-24.32zm0 23.32c-1.45 0-4.77.09-8.29.18-4.13.11-8.4.23-10.57.23H42.82a8.89 8.89 0 1 1 0-17.78 2.87 2.87 0 0 1 .4 0h.33a.52.52 0 0 0 .38-.13.5.5 0 0 0 .16-.36 17.86 17.86 0 0 1 35-4.81.49.49 0 0 0 .53.35 11.3 11.3 0 0 1 1.22-.07 11.16 11.16 0 0 1 0 22.32zM178.41 35.7a12.46 12.46 0 0 0-4.61.88 17.47 17.47 0 0 0-32.91 2 11.41 11.41 0 0 0-14.82 9.26 6.54 6.54 0 0 0 .38 13.06h52a12.57 12.57 0 1 0 0-25.15zm0 24.15h-52a5.54 5.54 0 0 1-.05-11.08.52.52 0 0 0 .61-.44 10.41 10.41 0 0 1 14-8.68.5.5 0 0 0 .66-.35 16.47 16.47 0 0 1 31.35-1.89.5.5 0 0 0 .28.28.5.5 0 0 0 .39 0 11.57 11.57 0 1 1 4.68 22.16z"/></g></svg>