<svg data-name="Слой 1" xmlns="http://www.w3.org/2000/svg" viewBox="0 0 227.67 102.81"><g fill="#35a8e0"><path d="M50.67 16.67a26.7 26.7 0 0 0-.5 53.39V92.3a.5.5 0 0 0 1 0V70.06a26.7 26.7 0 0 0-.5-53.39zm.5 52.39V51.41a.5.5 0 0 0-1 0v17.65a25.7 25.7 0 1 1 1 0zM203.7 43.37a26.7 26.7 0 1 0-27.2 26.69V92.3a.5.5 0 1 0 1 0V70.06a26.73 26.73 0 0 0 26.2-26.69zm-26.2 25.69V51.41a.5.5 0 0 0-1 0v17.65a25.7 25.7 0 1 1 1 0zM112.32 8.63c-8.94 0-16.21 16.1-16.21 35.9 0 18.45 6.26 22.48 15.71 22.62v26.53a.5.5 0 1 0 1 0V67.15c9.45-.13 15.71-4.17 15.71-22.62 0-19.79-7.27-35.9-16.21-35.9zm.5 57.51V41.88a.5.5 0 1 0-1 0v24.27c-7.52-.08-14.71-2.1-14.71-21.62 0-19.24 6.82-34.9 15.21-34.9s15.21 15.65 15.21 34.9c0 19.52-7.19 21.54-14.71 21.62z"/></g></svg>