<svg data-name="Слой 1" xmlns="http://www.w3.org/2000/svg" viewBox="0 0 175.75 196.24"><path d="M170.88 20h-10.25l5.92-5.92a.45.45 0 0 0 .14-.32V5.38a.5.5 0 0 0-.5-.5h-50.77a.5.5 0 0 0-.5.5v8.39a.45.45 0 0 0 .14.32L121 20H95.09v-7a.5.5 0 0 0-.5-.5H81.15a.5.5 0 0 0-.5.5v7H54.76l5.92-5.92a.5.5 0 0 0 .15-.36V5.38a.5.5 0 0 0-.5-.5H9.55a.5.5 0 0 0-.5.5v8.39H9a.45.45 0 0 0 .14.32L15.11 20H4.87a.5.5 0 0 0-.5.5v170.37a.5.5 0 0 0 .5.5H65a.5.5 0 0 0 .5-.5v-9.36h4.39v9.36a.5.5 0 0 0 .5.5h5.38a.5.5 0 0 0 .5-.5v-9.36h4.39v9.36a.5.5 0 0 0 1 0V34.45h5.72v156.42a.5.5 0 0 0 1 0V34.45h5.72V190.85a.5.5 0 0 0 1 0v-9.36h4.39v9.36a.5.5 0 0 0 .5.5h5.38a.5.5 0 0 0 .5-.5v-9.36h4.39v9.36a.5.5 0 0 0 .5.5h60.14a.5.5 0 0 0 .5-.5V20.54a.5.5 0 0 0-.52-.54zm-.5 13.42h-59.14V21h59.14zm-30.07 38.41V80h-22.15v-8.17zm-22.15-1v-8.14h22.15v8.14zM140.31 81v8.14h-22.15V81zm0 9.14v8.14h-22.15v-8.17zm0 9.14v8.14h-22.15v-8.17zm0 9.14v8.14h-22.15v-8.14zm0 9.14v8.14h-22.15v-8.14zm0 9.14v8.14h-22.15v-8.14zm0 9.14v8.14h-22.15v-8.14zm0 9.14v8.14h-22.15v-8.14zm0 9.14v8.14h-22.15v-8.14zm1 0h22.15v8.14h-22.15zm0-1v-8.14h22.15v8.14zm0-9.14v-8.14h22.15v8.14zm0-9.14v-8.14h22.15v8.14zm0-9.14v-8.14h22.15v8.14zm0-9.14v-8.14h22.15v8.14zm0-9.14v-8.17h22.15v8.14zm0-9.14v-8.17h22.15v8.14zm0-9.14V81h22.15v8.14zm0-9.14v-8.17h22.15V80zm0-9.14v-8.17h22.15v8.14zm0-9.14v-8.17h22.15v8.14zm-1 0h-22.15v-8.17h22.15zm-22.15 101.51h22.15v8.14h-22.15zm23.15 0h22.15v8.14h-22.15zm22.15-110.68h-22.15v-8.14h22.15zm-23.15 0h-22.15v-8.14h22.15zm-22.15-9.14v-9h22.15v9zm0 129h22.15v8.14h-22.15zm23.15 0h22.15v8.14h-22.15zm22.15-129h-22.15v-9h22.15zm-53.22-9v9h-4.39v-9zm-4.39 109.5v-8.14h4.39v8.14zm4.39 1v8.14h-4.39v-8.14zm-4.39-10.14v-8.14h4.39v8.14zm0-9.14v-8.14h4.39v8.14zm0-9.14v-8.14h4.39v8.14zm0-9.14v-8.1h4.39v8.14zm0-9.14v-8.1h4.39v8.14zm0-9.14V81h4.39v8.14zm0-9.14v-8.1h4.39V80zm0-9.14v-8.1h4.39v8.14zm0-9.14v-8.1h4.39v8.14zm0-9.14v-8.1h4.39v8.14zm0 101.54h4.39v8.14h-4.39zm0 9.14h4.39v8.14h-4.39zM165.7 5.88v7.39h-49.78V5.88zm-49.07 8.39H165L159.22 20H122.4zM110.24 21v12.45H95.09V21zM99.48 62.69v8.14h-4.39v-8.14zm-4.39-1v-8.14h4.39v8.14zm4.39 10.14V80h-4.39v-8.17zm0 9.14v8.14h-4.39V81zm0 9.14v8.14h-4.39v-8.14zm0 9.14v8.14h-4.39v-8.14zm0 9.14v8.14h-4.39v-8.14zm0 9.14v8.14h-4.39v-8.14zm0 9.14v8.14h-4.39v-8.14zm0 9.14v8.14h-4.39v-8.14zm0 9.14v8.14h-4.39v-8.14zm0 9.14v8.14h-4.39v-8.14zm0-101.54h-4.39v-8.14h4.39zm-4.39 110.68h4.39v8.14h-4.39zm4.39-119.82h-4.39v-9h4.39zm-18.83-9v9h-4.38v-9zm-4.38 119.68h4.39v8.14h-4.39zm0-1v-8.14h4.39v8.14zm0-9.14v-8.14h4.39v8.14zm0-9.14v-8.14h4.39v8.14zm0-9.14v-8.14h4.39v8.14zm0-9.14v-8.14h4.39v8.14zm0-9.14v-8.14h4.39v8.14zm0-9.14v-8.14h4.39v8.14zm0-9.14V81h4.39v8.14zm0-9.14v-8.14h4.39V80zm0-9.14v-8.14h4.39v8.14zm0-9.14v-8.14h4.39v8.14zm0-9.14v-8.14h4.39v8.14zm0 110.68h4.39v8.14h-4.39zm4.38-129.78H65.51V21h15.14zm-15.14 110.5v-8.14h4.39v8.14zm4.39 1v8.14h-4.39v-8.14zm-4.39-10.14v-8.14h4.39v8.14zm0-9.14v-8.14h4.39v8.14zm0-9.14v-8.14h4.39v8.14zm0-9.14v-8.14h4.39v8.14zm0-9.14v-8.14h4.39v8.14zm0-9.14V81h4.39v8.14zm0-9.14v-8.14h4.39V80zm0-9.14v-8.14h4.39v8.14zm0-9.14v-8.14h4.39v8.14zm0 92.4h4.39v8.14h-4.39zm4.38-101.54h-4.38v-8.14h4.39zm-4.38 110.68h4.39v8.14h-4.39zm4.38-119.82h-4.38v-9h4.39zM59.83 5.88v7.39H10V5.88zm-49.08 8.38h48.37L53.34 20H16.53zM5.37 21h59.14v12.45H5.37zm29.07 50.83V80H12.29v-8.17zm-22.15-1v-8.14h22.15v8.14zM34.44 81v8.14H12.29V81zm0 9.14v8.14H12.29v-8.17zm0 9.14v8.14H12.29v-8.17zm0 9.14v8.14H12.29v-8.14zm0 9.14v8.14H12.29v-8.14zm0 9.14v8.14H12.29v-8.14zm0 9.14v8.14H12.29v-8.14zm0 9.14v8.14H12.29v-8.14zm0 9.14v8.14H12.29v-8.14zm1 0h22.15v8.14H35.44zm0-1v-8.14h22.15v8.14zm0-9.14v-8.14h22.15v8.14zm0-9.14v-8.14h22.15v8.14zm0-9.14v-8.14h22.15v8.14zm0-9.14v-8.14h22.15v8.14zm0-9.14v-8.17h22.15v8.14zm0-9.14v-8.17h22.15v8.14zm0-9.14V81h22.15v8.14zm0-9.14v-8.17h22.15V80zm0-9.14v-8.17h22.15v8.14zm0-9.14v-8.17h22.15v8.14zm-1 0H12.29v-8.17h22.15zM12.29 163.23h22.15v8.14H12.29zm23.15 0h22.15v8.14H35.44zM57.59 52.55H35.44v-8.14h22.15zm-23.15 0H12.29v-8.14h22.15zm-22.15-9.14v-9h22.15v9zm0 129h22.15v8.14H12.29zm23.15 0h22.15v8.14H35.44zm22.15-129H35.44v-9h22.15zm-52.22-9h5.92v155.94H5.37zm6.92 147.06h22.15v8.86H12.29zm23.15 8.86v-8.86h22.15v8.86zm23.15 0V34.45h5.92V190.35zm6.92-9.86v-8.14h4.39v8.14zm9.76 9.86h-4.38V34.45h4.38zm1-9.86v-8.14h4.39v8.14zm5.38-167.01h12.44v20H81.65zm13.44 167.05v-8.14h4.39v8.14zm5.39 9.86V34.45h4.38V190.35zm5.38-9.86v-8.14h4.39v8.14zm5.39-146.06h5.92v155.92h-5.92zm6.92 147.06h22.15v8.86h-22.16zm23.15 8.86v-8.86h22.15v8.86zm29.07 0h-5.92V34.45h5.92z" fill="#35a8e0"/></svg>