<svg data-name="Слой 1" xmlns="http://www.w3.org/2000/svg" viewBox="0 0 227.67 118.82"><g fill="#00aed6"><path d="M113.84 47.11a12.8 12.8 0 1 0 12.8 12.8 12.81 12.81 0 0 0-12.8-12.8zm0 24.6a11.8 11.8 0 1 1 11.8-11.8 11.81 11.81 0 0 1-11.8 11.8zM113.84 41a.5.5 0 0 0 .5-.5V29.13a.5.5 0 0 0-1 0v11.33a.5.5 0 0 0 .5.54zM113.84 78.87a.5.5 0 0 0-.5.5V90.7a.5.5 0 0 0 1 0V79.37a.5.5 0 0 0-.5-.5zM144.62 59.41h-11.33a.5.5 0 0 0 0 1h11.33a.5.5 0 0 0 0-1zM94.88 59.91a.5.5 0 0 0-.5-.5H83.05a.5.5 0 0 0 0 1h11.33a.5.5 0 0 0 .5-.5zM99.73 46.51a.5.5 0 0 0 .71-.71l-8-8a.5.5 0 0 0-.71.71zM127.95 73.31a.5.5 0 1 0-.71.71l8 8a.5.5 0 0 0 .71-.71zM127.59 46.65a.5.5 0 0 0 .35-.15l8-8a.5.5 0 1 0-.71-.71l-8 8a.5.5 0 0 0 .35.85zM99.73 73.31l-8 8a.5.5 0 1 0 .71.71l8-8a.5.5 0 1 0-.71-.71z"/></g></svg>