<svg data-name="Слой 1" xmlns="http://www.w3.org/2000/svg" viewBox="0 0 1100 782"><g fill="#35a8e0"><path d="M806.55 615H675.38v-6.73a.5.5 0 0 0-.5-.5h-12.49v-18.45a.5.5 0 0 0-.5-.5H654v-20.7h2.1a.5.5 0 0 0 .5-.5V563a.5.5 0 0 0-.5-.5h-5.62v-8a.5.5 0 0 0-.5-.5h-3.79l-2.12-38h2.62a.5.5 0 0 0 .5-.5v-4.45a.5.5 0 0 0-.5-.5h-3.61l-2.13-34.12 2.06 1.08a.49.49 0 0 0 .23.06.5.5 0 0 0 .49-.58l-.79-4.57 3.32-3.24a.5.5 0 0 0-.28-.85l-4.59-.67-2.05-4.16a.52.52 0 0 0-.9 0l-2.05 4.16-4.59.67a.5.5 0 0 0-.28.85l3.32 3.24-.79 4.57a.5.5 0 0 0 .73.53l2.06-1.08-2.13 34.12h-3.61a.5.5 0 0 0-.5.5v4.45a.5.5 0 0 0 .5.5h2.62L631.57 554h-3.79a.5.5 0 0 0-.5.5v8h-5.62a.5.5 0 0 0-.5.5v4.64a.5.5 0 0 0 .5.5h2.1v20.7h-7.86a.5.5 0 0 0-.5.5v18.42h-12.48a.5.5 0 0 0-.5.5V615H471.25a.5.5 0 0 0-.5.5v12.05a.5.5 0 0 0 .5.5h3.21V671a.5.5 0 0 0 .5.5h327.88a.5.5 0 0 0 .5-.5v-43h3.21a.5.5 0 0 0 .5-.5v-12.03a.5.5 0 0 0-.5-.47zM635.74 471.89l-2.74-2.71 3.85-.56a.5.5 0 0 0 .38-.27l1.72-3.49 1.72 3.49a.5.5 0 0 0 .38.27l3.85.56-2.79 2.71a.5.5 0 0 0-.14.44l.66 3.83-1.74-.92a.49.49 0 0 0-.48-.3h-.05l-1.17-.61a.5.5 0 0 0-.46 0l-1.17.61h-.05a.48.48 0 0 0-.48.3l-1.74.91.66-3.83a.5.5 0 0 0-.21-.43zm-1 43.65a.5.5 0 0 0-.5-.53h-2.65v-3.45h3.58a.5.5 0 0 0 .5-.47l2.2-35.2 1-.53 1 .53 2.2 35.2a.5.5 0 0 0 .5.47h3.58V515h-2.65a.5.5 0 0 0-.5.53l2.23 38.47h-12.66zM628.27 555h21.25v7.53h-21.25zm-6.12 12.17v-3.64h33.49v3.64h-33.49zm2.6 1H653v20.7h-28.3zm-3.35 21.7h40v17.92h-4.5v-7.29a.5.5 0 0 0-.5-.5h-6.92a.5.5 0 0 0-.5.5v7.29h-6.11v-7.29a.5.5 0 0 0-.5-.5h-6.92a.5.5 0 0 0-.5.5v7.29h-6.11v-7.29a.5.5 0 0 0-.5-.5h-6.94a.5.5 0 0 0-.5.5v7.29h-4.5v-17.97zm28.6 17.87V601h5.92v6.79zm152.37 43h-6.79v-16.35a.5.5 0 0 0-.5-.5h-9.68a.5.5 0 0 0-.5.5v16.38h-5.82v-16.38a.5.5 0 0 0-.5-.5h-9.64a.5.5 0 0 0-.5.5v16.38h-5.82v-16.38a.5.5 0 0 0-.5-.5h-9.64a.5.5 0 0 0-.5.5v16.38h-5.82v-16.38a.5.5 0 0 0-.5-.5H736a.5.5 0 0 0-.5.5v16.38h-5.82v-16.38a.5.5 0 0 0-.5-.5h-9.64a.5.5 0 0 0-.5.5v16.38h-17V636.2a5.32 5.32 0 1 0-10.64 0v14.56h-8.64v-17.09a5.32 5.32 0 1 0-10.64 0v17.09h-8.64V630a5.32 5.32 0 1 0-10.64 0v20.81h-8.64V630a5.32 5.32 0 1 0-10.64 0v20.81h-8.64V630a5.32 5.32 0 1 0-10.64 0v20.81h-8.64v-17.14a5.32 5.32 0 1 0-10.64 0v17.09h-8.64V636.2a5.32 5.32 0 1 0-10.64 0v14.56h-17v-16.37a.5.5 0 0 0-.5-.5h-9.64a.5.5 0 0 0-.5.5v16.38h-5.82v-16.38a.5.5 0 0 0-.5-.5h-9.64a.5.5 0 0 0-.5.5v16.38h-5.81v-16.38a.5.5 0 0 0-.5-.5h-9.64a.5.5 0 0 0-.5.5v16.38h-5.82v-16.38a.5.5 0 0 0-.5-.5h-9.64a.5.5 0 0 0-.5.5v16.38h-5.81v-16.38a.5.5 0 0 0-.5-.5h-9.64a.5.5 0 0 0-.5.5v16.38h-6.79V628h84.73l78.7-19.26L717.6 628h84.74zm-7.79 0h-8.68v-15.85h8.64zm-16.46 0h-8.64v-15.85h8.64zm-16.46 0H753v-15.85h8.64zm-16.46 0h-8.64v-15.85h8.64zm-16.46 0h-8.64v-15.85h8.64zm-27.63 0h-8.64V636.2a4.32 4.32 0 1 1 8.64 0zm-19.29 0h-8.64v-17.07a4.32 4.32 0 1 1 8.64 0zm-19.29 0h-8.64V630a4.32 4.32 0 1 1 8.64 0zm-23.61 0h-4.32V630a4.32 4.32 0 1 1 8.64 0v20.81zm-15 0h-8.64V630a4.32 4.32 0 1 1 8.64 0zm-19.29 0H596v-17.07a4.32 4.32 0 1 1 8.64 0zm-19.29 0h-8.64V636.2a4.32 4.32 0 1 1 8.64 0zm-27.63 0h-8.64v-15.85h8.64zm-16.46 0h-8.64v-15.85h8.64zm-16.46 0h-8.64v-15.85h8.64zm-16.46 0h-8.64v-15.85h8.64zm-16.46 0h-8.64v-15.85h8.64zm150-43h-5.92V601h5.92zm-20 0V601h5.92v6.79zM471.75 616h131.17a.5.5 0 0 0 .5-.5v-6.73h31.33L560 627h-88.25zm3.71 54.53v-18.77h326.88v18.74zM806 627h-88.22L643 608.74h31.33v6.73a.5.5 0 0 0 .5.5H806z"/><path d="M632.41 569h-5.19a.5.5 0 0 0-.5.5v17.06a.5.5 0 0 0 .5.5h5.19a.5.5 0 0 0 .5-.5v-17.08a.5.5 0 0 0-.5-.48zm-.5 17.06h-4.19V570h4.19zM642 586.54v-17.06a.5.5 0 0 0-.5-.5h-5.2a.5.5 0 0 0-.5.5v17.06a.5.5 0 0 0 .5.5h5.19a.5.5 0 0 0 .51-.5zm-1-.5h-4.2V570h4.2zM621.4 596.93h6.92a.5.5 0 0 0 0-1h-6.92a.5.5 0 0 0 0 1zM635.44 596.93h6.92a.5.5 0 0 0 0-1h-6.92a.5.5 0 0 0 0 1zM492.4 655.58h-9.64a.5.5 0 0 0-.5.5v9.83a.5.5 0 0 0 .5.5h9.64a.5.5 0 0 0 .5-.5v-9.83a.5.5 0 0 0-.5-.5zm-.5 9.83h-8.64v-8.83h8.64zM508.85 655.58h-9.64a.5.5 0 0 0-.5.5v9.83a.5.5 0 0 0 .5.5h9.64a.5.5 0 0 0 .5-.5v-9.83a.5.5 0 0 0-.5-.5zm-.5 9.83h-8.64v-8.83h8.64zM525.31 655.58h-9.64a.5.5 0 0 0-.5.5v9.83a.5.5 0 0 0 .5.5h9.64a.5.5 0 0 0 .5-.5v-9.83a.5.5 0 0 0-.5-.5zm-.5 9.83h-8.64v-8.83h8.64zM541.77 655.58h-9.64a.5.5 0 0 0-.5.5v9.83a.5.5 0 0 0 .5.5h9.64a.5.5 0 0 0 .5-.5v-9.83a.5.5 0 0 0-.5-.5zm-.5 9.83h-8.64v-8.83h8.64zM558.23 655.58h-9.64a.5.5 0 0 0-.5.5v9.83a.5.5 0 0 0 .5.5h9.64a.5.5 0 0 0 .5-.5v-9.83a.5.5 0 0 0-.5-.5zm-.5 9.83h-8.64v-8.83h8.64zM585.86 655.58h-9.64a.5.5 0 0 0-.5.5v9.83a.5.5 0 0 0 .5.5h9.64a.5.5 0 0 0 .5-.5v-9.83a.5.5 0 0 0-.5-.5zm-.5 9.83h-8.64v-8.83h8.64zM605.15 655.58h-9.65a.5.5 0 0 0-.5.5v9.83a.5.5 0 0 0 .5.5h9.64a.5.5 0 0 0 .5-.5v-9.83a.5.5 0 0 0-.49-.5zm-.5 9.83H596v-8.83h8.64zM624.43 655.58h-9.64a.5.5 0 0 0-.5.5v9.83a.5.5 0 0 0 .5.5h9.64a.5.5 0 0 0 .5-.5v-9.83a.5.5 0 0 0-.5-.5zm-.5 9.83h-8.64v-8.83h8.64zM643.72 655.58h-9.64a.5.5 0 0 0-.5.5v9.83a.5.5 0 0 0 .5.5h9.64a.5.5 0 0 0 .5-.5v-9.83a.5.5 0 0 0-.5-.5zm-.5 9.83h-8.64v-8.83h8.64zM645.39 587h5.19a.5.5 0 0 0 .5-.5v-17.02a.5.5 0 0 0-.5-.5h-5.19a.5.5 0 0 0-.5.5v17.06a.5.5 0 0 0 .5.46zm.5-17.06h4.19V586h-4.19zM649.47 596.93h6.92a.5.5 0 0 0 0-1h-6.92a.5.5 0 0 0 0 1zM795 655.58h-9.6a.5.5 0 0 0-.5.5v9.83a.5.5 0 0 0 .5.5h9.6a.5.5 0 0 0 .5-.5v-9.83a.5.5 0 0 0-.5-.5zm-.5 9.83h-8.6v-8.83h8.64zM778.59 655.58h-9.64a.5.5 0 0 0-.5.5v9.83a.5.5 0 0 0 .5.5h9.64a.5.5 0 0 0 .5-.5v-9.83a.5.5 0 0 0-.5-.5zm-.5 9.83h-8.64v-8.83h8.64zM762.13 655.58h-9.64a.5.5 0 0 0-.5.5v9.83a.5.5 0 0 0 .5.5h9.64a.5.5 0 0 0 .5-.5v-9.83a.5.5 0 0 0-.5-.5zm-.5 9.83H753v-8.83h8.64zM745.67 655.58H736a.5.5 0 0 0-.5.5v9.83a.5.5 0 0 0 .5.5h9.64a.5.5 0 0 0 .5-.5v-9.83a.5.5 0 0 0-.47-.5zm-.5 9.83h-8.64v-8.83h8.64zM729.21 655.58h-9.64a.5.5 0 0 0-.5.5v9.83a.5.5 0 0 0 .5.5h9.64a.5.5 0 0 0 .5-.5v-9.83a.5.5 0 0 0-.5-.5zm-.5 9.83h-8.64v-8.83h8.64zM701.58 655.58h-9.64a.5.5 0 0 0-.5.5v9.83a.5.5 0 0 0 .5.5h9.64a.5.5 0 0 0 .5-.5v-9.83a.5.5 0 0 0-.5-.5zm-.5 9.83h-8.64v-8.83h8.64zM682.29 655.58h-9.64a.5.5 0 0 0-.5.5v9.83a.5.5 0 0 0 .5.5h9.64a.5.5 0 0 0 .5-.5v-9.83a.5.5 0 0 0-.5-.5zm-.5 9.83h-8.64v-8.83h8.64zM663 655.58h-9.64a.5.5 0 0 0-.5.5v9.83a.5.5 0 0 0 .5.5H663a.5.5 0 0 0 .5-.5v-9.83a.5.5 0 0 0-.5-.5zm-.5 9.83h-8.64v-8.83h8.64zM281.31 378.51h-.91a18.86 18.86 0 0 0-36.79 4.92h-.28a9.89 9.89 0 1 0 0 19.78h19.12c2.19 0 6.46-.12 10.6-.23 3.51-.09 6.83-.18 8.26-.18a12.16 12.16 0 0 0 0-24.32zm0 23.32c-1.45 0-4.77.09-8.29.18-4.13.11-8.4.23-10.57.23h-19.12a8.89 8.89 0 1 1 0-17.78 2.9 2.9 0 0 1 .39 0h.33a.51.51 0 0 0 .37-.13.5.5 0 0 0 .16-.36 17.86 17.86 0 0 1 35-4.81.5.5 0 0 0 .53.35 11.16 11.16 0 1 1 1.22 22.25zM432.92 292.48a12.45 12.45 0 0 0-4.61.88 17.47 17.47 0 0 0-32.91 2 11.41 11.41 0 0 0-14.82 9.26 6.54 6.54 0 0 0 .38 13.06h52a12.57 12.57 0 1 0 0-25.15zm0 24.15H381a5.54 5.54 0 0 1 0-11.08.53.53 0 0 0 .6-.44 10.41 10.41 0 0 1 14-8.68.5.5 0 0 0 .66-.35 16.47 16.47 0 0 1 31.35-1.89.5.5 0 0 0 .67.28 11.57 11.57 0 1 1 4.68 22.16zM960.36 464.22a12.58 12.58 0 1 0-4.6-24.22 17.47 17.47 0 0 0-32.91 2 11.41 11.41 0 0 0-14.85 9.16 6.54 6.54 0 0 0 .38 13.06zm-57.49-6.54a5.54 5.54 0 0 1 5.49-5.54.53.53 0 0 0 .6-.44A10.41 10.41 0 0 1 923 443a.5.5 0 0 0 .66-.34 16.47 16.47 0 0 1 31.34-1.87.5.5 0 0 0 .67.28 11.57 11.57 0 1 1 4.68 22.16h-52a5.54 5.54 0 0 1-5.48-5.54zM374.93 362.5a12.8 12.8 0 1 0 12.8 12.8 12.81 12.81 0 0 0-12.8-12.8zm0 24.6a11.8 11.8 0 1 1 11.8-11.8 11.81 11.81 0 0 1-11.8 11.8zM374.93 356.35a.5.5 0 0 0 .5-.5v-11.33a.5.5 0 0 0-1 0v11.33a.5.5 0 0 0 .5.5zM374.93 394.26a.5.5 0 0 0-.5.5v11.33a.5.5 0 0 0 1 0v-11.33a.5.5 0 0 0-.5-.5zM405.72 374.8h-11.33a.5.5 0 0 0 0 1h11.33a.5.5 0 0 0 0-1zM356 375.3a.5.5 0 0 0-.5-.5h-11.35a.5.5 0 0 0 0 1h11.33a.5.5 0 0 0 .52-.5zM353.52 353.18a.5.5 0 0 0-.71.71l8 8a.5.5 0 0 0 .71-.71zM389 388.71a.5.5 0 0 0-.71.71l8 8a.5.5 0 0 0 .71-.71zM388.69 362a.5.5 0 0 0 .35-.15l8-8a.5.5 0 0 0-.71-.71l-8 8a.5.5 0 0 0 .35.85zM360.82 388.71l-8 8a.5.5 0 1 0 .71.71l8-8a.5.5 0 0 0-.71-.71zM914.27 136.6h5.59a.5.5 0 0 0 .5-.5v-11.17a.5.5 0 0 0-.5-.5h-5.59a.5.5 0 0 0-.5.5v11.17a.5.5 0 0 0 .5.5zm.5-11.17h4.59v10.17h-4.59zM923.84 140a.5.5 0 0 0-.5-.5H910.8a.5.5 0 1 0 0 1h12.54a.5.5 0 0 0 .5-.5zM854.28 77.36a2 2 0 0 0 2-2.58L855 70.19a.74.74 0 0 0-1.43 0l-1.26 4.59a2 2 0 0 0 2 2.58zm-1-2.32l1-3.68 1 3.68a1 1 0 0 1-.18.91 1.07 1.07 0 0 1-1.66 0 1 1 0 0 1-.17-.95z"/><path d="M1000.63 182.18h28.17a.5.5 0 0 0 .5-.5v-23.12a.5.5 0 0 0-.5-.5h-2.29v-49.34l6.14-6.37a.5.5 0 0 0-.36-.85h-48.85v-8.08l7.46-5a.5.5 0 0 0-.08-.87l-7.38-3.19v-6.1a.5.5 0 0 0-.5-.5h-5.15a.5.5 0 0 0-.5.5v3.48l-57.15-24.68v-7.55a.5.5 0 0 0-.5-.5H918a2 2 0 0 0 1.29-2.45L918 42a.73.73 0 0 0-.71-.55h-.08a.73.73 0 0 0-.72.55l-1.26 4.59a2 2 0 0 0 1.3 2.41h-1.66a.5.5 0 0 0-.5.5v7.55l-57.15 24.68v-3.47a.5.5 0 0 0-.5-.5h-5.15a.5.5 0 0 0-.5.5v6.13l-7.38 3.19a.5.5 0 0 0-.08.88l7.46 5v8.08h-48.84a.5.5 0 0 0-.36.85l6.14 6.37v49.33h-2.29a.5.5 0 0 0-.5.5v23.12a.5.5 0 0 0 .5.5h194.91zM852 176.58V173h130.54v3.6zm-20.51-18.52V156a.5.5 0 0 0-.5-.5h-1.89v-44h1.9a.5.5 0 0 0 .5-.5v-2h4.94v2a.5.5 0 0 0 .5.5h1.89v44H837a.5.5 0 0 0-.5.5v2.09zm-18.43-2.59H809v-44h4.1zm0-45H809V109h4.1zM809 158.06v-1.59h4.1v1.59zm5.1-2.09V109h6.55v2a.5.5 0 0 0 .5.5H823v44h-1.89a.5.5 0 0 0-.5.5v2.09h-6.55V156zm16.43-47v1.47h-8.88V109zm0 48.93h-8.88v-1.47h8.88zm-2.39-2.47H824v-44h4.1zM846.36 109v1.47h-8.88V109zm0 48.93h-8.88v-1.47h8.88zm-2.36-2.45h-4.1v-44h4.1zm2.89 0H845v-44h1.89a.5.5 0 0 0 .5-.5v-2h6.41v46.14h-2.21a.5.5 0 0 0-.5.5v2.41h-3.71V156a.5.5 0 0 0-.52-.52zm70.35-61.82h65.22v2.72H852.07v-2.73zm-63.11-1l63.15-26 63.15 26H854.1zM1003 109v2a.5.5 0 0 0 .5.5h1.89v44h-1.89a.5.5 0 0 0-.5.5v2.09h-5V156a.5.5 0 0 0-.5-.5h-1.89v-44h1.89a.5.5 0 0 0 .5-.5v-2zm17.43 0v49.09h-6.55V156a.5.5 0 0 0-.5-.5h-1.89v-44h1.89a.5.5 0 0 0 .5-.5v-2zm5.1 46.46h-4.1v-44h4.1zm-4.1 2.59v-1.59h4.1v1.59zm4.1-49v1.47h-4.1V109zm-19.14 2.47h4.1v44h-4.1zm-.5 45h7v1.47H1004v-1.47zm7-47.46v1.47H1004V109zm-22.31 2.47h4.1v44h-4.1zm-.5 45h7V158h-8.88v-1.47zM997 109v1.47h-8.88V109zm-9.38 2.47h1.89v44h-1.89a.5.5 0 0 0-.5.5v2.09h-3.71v-2.41a.5.5 0 0 0-.5-.5h-2.21V109h6.41v2a.5.5 0 0 0 .53.49zm-73.4 46.46v-13.3h5.63v13.32zm6.13-14.32h-6.63a.5.5 0 0 0-.5.5v13.93h-1.91v-2.41a.5.5 0 0 0-.5-.5h-2.21v-49.84h2.21a.5.5 0 0 0 .5-.5v-2.29h11.83v2.29a.5.5 0 0 0 .5.5h2.21v49.86h-2.21a.5.5 0 0 0-.5.5v2.41h-2.29v-13.93a.5.5 0 0 0-.47-.5zm-57.6-42.11h-10.68v-4.12h130.37v4.12H862.75zm103.66 56.45h-10.18v-1.79h10.17zm-2.71-2.79h-4.76v-49.87h4.76zm.5-50.86h-8v-1.8h10.17v1.79zm-13.83 53.65H940.2v-1.79h10.17zm-2.71-2.79h-4.76v-49.87h4.76zm.5-50.86h-8v-1.8h10.17v1.79zm-13.83 53.65h-10.16v-1.79h10.17zm-2.71-2.79h-4.76v-49.87h4.76zm.5-50.86h-8v-1.8h10.17v1.79zm-21.79 53.65h-10.16v-1.79h10.17zm-2.71-2.79h-4.76v-49.87h4.76zm.5-50.86h-8v-1.8h10.17v1.79zm-13.83 53.65h-10.15v-1.79h10.17zm-2.71-2.79h-4.76v-49.87h4.76zm.5-50.86h-8v-1.8h10.17v1.79zm-24-1.79h10.17v1.79H868.1zm2.71 2.79h4.76v49.86h-4.76zm7.47 50.86v1.79H868.1v-1.79zm.5-1h-2.21v-49.87h2.21a.5.5 0 0 0 .5-.5v-2.29h3.86v2.29a.5.5 0 0 0 .5.5h2.21v49.86h-2.21a.5.5 0 0 0-.5.5v2.41h-3.86v-2.41a.5.5 0 0 0-.48-.5zm16 0h-2.16v-49.87h2.21a.5.5 0 0 0 .5-.5v-2.29h3.86v2.29a.5.5 0 0 0 .5.5h2.21v49.86h-2.21a.5.5 0 0 0-.5.5v2.41h-3.86v-2.41a.5.5 0 0 0-.5-.5zm40 0h-2.21v-49.87h2.21a.5.5 0 0 0 .5-.5v-2.29h3.86v2.29a.5.5 0 0 0 .5.5h2.21v49.86h-2.13a.5.5 0 0 0-.5.5v2.41h-3.86v-2.41a.5.5 0 0 0-.5-.5zm16 0h-2.21v-49.87h2.21a.5.5 0 0 0 .5-.5v-2.29h3.86v2.29a.5.5 0 0 0 .5.5h2.21v49.86h-2.21a.5.5 0 0 0-.5.5v2.41h-3.86v-2.41a.5.5 0 0 0-.39-.5zm16 0h-2.06v-49.87h2.21a.5.5 0 0 0 .5-.5v-2.29h3.86v2.29a.5.5 0 0 0 .5.5H974v49.86h-2.21a.5.5 0 0 0-.5.5v2.41h-3.86v-2.41a.5.5 0 0 0-.52-.5zm15.53 2.79h-10.03v-1.79h10.17zm-2.71-2.79H975v-49.87h4.76zm.5-50.86h-8v-1.8h10.17v1.79zm-128.01-1.8h10.17v1.79h-10.17zm7.47 2.79v49.86h-4.76v-49.86zm2.71 52.65h-10.18v-1.79h10.17zm.5-2.79h-2.21v-49.86h2.21a.5.5 0 0 0 .5-.5v-2.29h3.86v2.29a.5.5 0 0 0 .5.5h2.21v49.86h-2.22a.5.5 0 0 0-.5.5v2.41h-3.86v-2.41a.5.5 0 0 0-.49-.5zm99.91 3.91v3.6h-91.18v-3.6zm-91.66 4.6h96v3.6h-99.41v-3.6zm-3.88 4.6h107.04v3.6H860.43v-3.6zM983 172h-7.88v-4.23a.5.5 0 0 0-.5-.5H968v-4.1a.5.5 0 0 0-.5-.5h-3.85v-3.6h36.47v22.12h-12v-4.1a.5.5 0 0 0-.5-.5h-4.08v-4.1a.5.5 0 0 0-.54-.49zm18.09 9.19v-22.13h27.17v22.12zm30-78.68l-5.32 5.52h-45.04v-2.72h2.21a.5.5 0 0 0 .5-.5v-2.31zm-52.8-23.75h4.15V84l-4.15-1.79zm-60.07-31.94a1 1 0 0 1-.18.91 1 1 0 0 1-1.58 0 1 1 0 0 1-.18-.91l1-3.53zM915.37 50h3.77v6.62l-1.64-.71a1 1 0 0 0-.28 0 .5.5 0 0 0-.2 0l-1.64.71zm-63.3 28.75h4.15v3.41L852.07 84zm4.84 4.2l58.14-25.1 2.19-.94 2.19.94L977.59 83l12 5.17-2.66 1.78L917.49 61a1 1 0 0 0-.28 0 .5.5 0 0 0-.19 0L847.6 89.9l-2.66-1.78zm-8.32 7.62L917.25 62l68.66 28.55-3 2-65.39-26.9a1 1 0 0 0-.27 0 .5.5 0 0 0-.19 0l-65.39 26.9zm2.47 11.93v2.29a.5.5 0 0 0 .5.5h2.21V108h-45.05l-5.32-5.52zm-44.86 56.56h27.17v22.12h-27.15zm28.17 0h36.1v3.6h-3.39a.5.5 0 0 0-.5.5v4.1h-6.66a.5.5 0 0 0-.5.5V172h-7.88a.5.5 0 0 0-.5.5v4.1h-4.54a.5.5 0 0 0-.5.5v4.1h-11.62zm152.74 22.12H847v-3.6h140.13z"/><path d="M980.23 77.36a2 2 0 0 0 2-2.58l-1.26-4.59a.74.74 0 0 0-1.43 0l-1.26 4.59a2 2 0 0 0 2 2.58zm-1-2.32l1-3.68 1 3.68a1 1 0 0 1-.18.91 1.07 1.07 0 0 1-1.66 0 1 1 0 0 1-.17-.95zM294 121.84c-14.71-16.42-39.82-38.11-76-48.14a151.67 151.67 0 0 0-36.18-5.43.48.48 0 0 0-.3.09l-26.84 18.29L125 66.14a.51.51 0 0 0-.15-.07C116.91 63.88 73.42 60 50.65 88v.06a54.55 54.55 0 0 0-3.47 4.8c-1 1.51-1.9 3.1-2.76 4.77-4.73 9.21-2.2 18.72-.84 23.83l.25.93a.5.5 0 0 0 .48.37h249.34a.5.5 0 0 0 .5-.5.48.48 0 0 0 0-.07.49.49 0 0 0-.15-.35zm-21.9 0l-.07-.07q-4.68-2.84-9.44-5.56l-1.48-6.81 7.23-1.82q11.16 6.29 22 13.11l1.81 1.15zm-66.53 0l-6.66-4.6h53.72v4.6zm-14.76 0l-7-4.6h6l7 4.6zm-109 0L83 118.6h16.87l-1.15 3.22zm-4 0V96.41l10.91 3.05-3.22 9a.49.49 0 0 0-.08.22l-4.7 13.14zm-23.67 0l5.05-17.88 8.15 7-3.74 10.85zM51.2 89l10.43 2.92-2.91 10.29-10.56-9c.97-1.55 1.98-2.94 3.04-4.21zm11.4 3.19L73 95l-5.19 14.85-8.21-7zm10.51 5.5v24.17h-8.45zm1-2.29l2.77.78v25.68h-2.77zm90.28 10.24l16.12 10.62h-23.26V110a.5.5 0 0 0-.5-.5h-38.62v-1.81l5.51 1.54h.13zm-78 3.63h16.86l-1.4 3.91H85zm30.77 3.91h-14.28l1.4-3.91h12.85zm-32.52 1h16.86l-1.24 3.46H83.37zm17.92 0h14.61v3.46h-15.88zm14.61-5.91h-12.53l1.41-3.94 11.08 3.1zm-13.55 0h-16.9l3-8.49 15.36 4.22zm-2.65 10.38h16.2v3.22H99.78zm17.2-8.13h38.11v6.24a.5.5 0 0 0 .5.5H182l7 4.6h-70.87zm64.19 5.74L166 105.45l5.32-.48 17.05 11.23zm-9.41-11.38l5.6-.5 17.2 11.88h-5.53zm6.69-1l1.57-.86a59.22 59.22 0 0 1 34.49-6.93l7.44.76q8.82 4.08 17.48 8.51l-13 10.75a.49.49 0 0 0-.09.11h-30zm54.48 8.12h18.52v4.22H229zm1.21-1l6.23-5.15q4.9 2.52 9.73 5.15zm-11.49-15.25l-1.1-5.33 6.66-2.35 1.71 5.69zm7.56-1l1.74 5.8q-4.15-2-8.35-4zm1-.26l6.75-1.85.92 6.17-5.76 2zm7.81 5.33l.68 4.59q-2.81-1.44-5.65-2.84zm1.74 4.87l-.78-5.21 7-2.46 2 6.06zm8.48-.65l2.11 6.51q-4.73-2.58-9.52-5.05zm3.08 6.27l-2.09-6.46 7.2-1.42 1.36 6.25zm6.68-.65l1.28 5.89q-3.8-2.18-7.64-4.29zm-.46-6.83q3.72 2 7.4 4l-6.18 1.56zm-8.62.06l-1.78-5.49q4.1 2.08 8.17 4.23zM241 98.44l-.83-5.59c2.34 1.12 4.67 2.26 7 3.42zm-8.91-4.94l-1.54-5.15q3.79 1.72 7.55 3.5zm-9.54-4.06l-1-5.09q3.45 1.48 6.89 3zm-2.11-5.29l1.16 5.63-6.27 2.22-1.72-5.68zm-7.11 1.21l-1.53-5c2.53 1 5.07 2.07 7.57 3.13zm-1 .3l-6.6 2.09-1.42-5 6.34-2.59zm-8.29-3.92l-1.41-5 .25.09c2.24.86 4.5 1.75 6.74 2.65zm-.93.38l-5.86 2.39-2.4-5.77 6.69-2.2zm-8.64-4.31l-2-4.77c3 1.08 5.89 2.13 7.85 2.84zm-1 .31l-7 2.31-1.74-4.9 6.58-2.69zm-8.17 2.11q-3.23-1.18-6.48-2.3l4.94-2zm8.64-1.23l2.17 5.23q-4.19-1.63-8.4-3.19zm9.48 4l1.31 4.64q-3.18-1.31-6.37-2.58zm9.24 3.53l1.56 5.15q-3.78-1.65-7.58-3.24zm9.13 4.15l1 4.83q-3.21-1.48-6.44-2.91zm31.85 21.51q8.38 4.61 16.56 9.54h-16.55zm-35.86-37.6c33.92 9.41 58.06 29.16 73 45.07q-10.76-6.82-21.92-13.07a.49.49 0 0 0-.24-.14q-4.61-2.59-9.27-5.08a.5.5 0 0 0-.24-.13q-5.14-2.74-10.34-5.37h-.11q-4.38-2.2-8.8-4.32h-.07Q234.87 89.2 230 87q-4.46-2-9-3.94c-3.22-1.38-6.48-2.72-9.75-4h-.06c-2.63-1.06-5.27-2.1-7.89-3.1l-1.08-.4a.5.5 0 0 0-.18-.06c-3.07-1.13-10.9-4-16.69-6a150.35 150.35 0 0 1 32.43 5.17zm-27.55-2.46l-5.79 2.37-1.78-5c2.16.8 4.86 1.74 7.58 2.71zm-8.64-2.66l1.92 5.4-6 2.47q-2.48-.85-5-1.68zm-10.13 6.89a489.14 489.14 0 0 1 48.79 19.1l-4.49-.46a60.25 60.25 0 0 0-35.07 7l-2 1.1-23.12-16zm-47-9.43l29.92 20.66 22.82 15.76-5.66.51a.49.49 0 0 0-.64.09l-6.23.56a.49.49 0 0 0-.64.09l-40.14 3.59-72-20.08C74.37 61.2 116.52 64.86 124.49 67zm-80 54.23c-1.33-5-3.8-14.25.76-23.12.78-1.36 1.58-2.73 2.41-4.04l10.8 9.23-5.25 18.6h-8.54zm154.2.56l-7-4.6h5.46l6.66 4.6zM251.18 507.25h-10.24l5.92-5.92a.5.5 0 0 0 .11-.17.5.5 0 0 0 0-.12.47.47 0 0 0 0-.08v-8.39a.5.5 0 0 0-.5-.5h-50.75a.5.5 0 0 0-.5.5V501a.47.47 0 0 0 0 .08.5.5 0 0 0 0 .12.5.5 0 0 0 .11.17l5.92 5.92H175.4v-7.08a.5.5 0 0 0-.5-.5h-13.44a.5.5 0 0 0-.5.5v7.08h-25.9l5.92-5.92a.5.5 0 0 0 .11-.17.5.5 0 0 0 0-.12.47.47 0 0 0 0-.08v-8.39a.5.5 0 0 0-.5-.5H89.85a.5.5 0 0 0-.5.5V501a.47.47 0 0 0 0 .08.5.5 0 0 0 0 .12.5.5 0 0 0 .11.17l5.92 5.92H85.17a.5.5 0 0 0-.5.5v170.29a.5.5 0 0 0 .5.5h60.14a.5.5 0 0 0 .5-.5v-9.36h4.38v9.36a.5.5 0 0 0 .5.5h5.38a.5.5 0 0 0 .5-.5v-9.36H161v9.36a.5.5 0 0 0 1 0V521.69h5.72v156.39a.5.5 0 0 0 1 0V521.66h5.72v156.42a.5.5 0 0 0 1 0v-9.36h4.39v9.36a.5.5 0 0 0 .5.5h5.38a.5.5 0 0 0 .5-.5v-9.36h4.38v9.36a.5.5 0 0 0 .5.5h60.14a.5.5 0 0 0 .5-.5V507.75a.5.5 0 0 0-.55-.5zm-.5 13.42h-59.14v-12.42h59.14zm-52.22 110.5V623h22.15v8.14zm22.15 1v8.14h-22.15v-8.14zM198.46 622v-8.14h22.15V622zm0-9.14v-8.14h22.15v8.14zm0-9.14v-8.12h22.15v8.14zm0-9.14v-8.14h22.15v8.14zm0-9.14v-8.14h22.15v8.14zm0-9.14v-8.14h22.15v8.14zm0-9.14V559h22.15v8.14zm0-9.14v-8.12h22.15v8.1zm0 83.26h22.15v8.14h-22.15zm23.15 0h22.15v8.14h-22.15zm0-1v-8.14h22.15v8.14zm0-9.14V623h22.15v8.14zm0-9.14v-8.14h22.15V622zm0-9.14v-8.14h22.15v8.14zm0-9.14v-8.12h22.15v8.14zm0-9.14v-8.14h22.15v8.14zm0-9.14v-8.14h22.15v8.14zm0-9.14v-8.14h22.15v8.14zm0-9.14V559h22.15v8.14zm0-9.14v-8.12h22.15v8.1zm0-9.14v-8.14h22.15v8.14zm-1 0h-22.15v-8.14h22.15zm-22.15 101.56h22.15v8.14h-22.15zm23.15 0h22.15v8.14h-22.15zm22.15-110.68h-22.15v-8.14h22.15zm-23.15 0h-22.15v-8.14h22.15zm-22.15-9.14v-9h22.15v9zm0 129h22.15v8.14h-22.15zm23.15 0h22.15v8.14h-22.15zm22.15-129h-22.15v-9h22.15zm-53.22-9v9h-4.38v-9zm-4.38 109.5V623h4.38v8.14zm4.38 1v8.14h-4.38v-8.14zM186.16 622v-8.14h4.38V622zm0-9.14v-8.14h4.38v8.14zm0-9.14v-8.12h4.38v8.14zm0-9.14v-8.14h4.38v8.14zm0-9.14v-8.14h4.38v8.14zm0-9.14v-8.14h4.38v8.14zm0-9.14V559h4.38v8.14zm0-9.14v-8.12h4.38v8.1zm0-9.14v-8.14h4.38v8.14zm0-9.14v-8.14h4.38v8.14zm0 101.54h4.38v8.14h-4.38zm0 9.14h4.38v8.14h-4.38zM246 493.08v7.39h-49.78v-7.39zm-49.07 8.39h48.37l-5.77 5.77h-36.82zm-6.39 6.77v12.42H175.4v-12.41zm-10.76 41.66v8.1h-4.38v-8.1zm-4.39-1v-8.14h4.39v8.14zm4.39 10.1v8.14h-4.38V559zm0 9.14v8.14h-4.38v-8.14zm0 9.14v8.14h-4.38v-8.14zm0 9.14v8.14h-4.38v-8.14zm0 9.14v8.14h-4.38v-8.1zm0 9.14v8.14h-4.38v-8.14zm0 9.14V622h-4.38v-8.14zm0 9.14v8.14h-4.38V623zm0 9.14v8.14h-4.38v-8.14zm0 9.14v8.14h-4.38v-8.1zm0-101.54h-4.38v-8.14h4.39zm-4.38 110.72h4.39v8.14h-4.39zm4.39-119.82h-4.39v-9h4.39zM156.57 641.3H161v8.14h-4.39zm0-1v-8.14H161v8.14zm0-9.14V623H161v8.14zm0-9.14v-8.14H161V622zm0-9.14v-8.14H161v8.14zm0-9.14v-8.14H161v8.14zm0-9.14v-8.14H161v8.14zm0-9.14v-8.14H161v8.14zm0-9.14v-8.14H161v8.14zm0-9.14V559H161v8.14zm0-9.14v-8.14H161v8.1zm0-9.14v-8.14H161v8.14zm0-9.14v-8.14H161v8.14zm0 110.68H161v8.14h-4.39zM161 530.62h-4.39v-9H161zm0-10h-15.19v-12.37H161zm-15.15 110.5V623h4.38v8.14zm4.38 1v8.14h-4.38v-8.14zM145.81 622v-8.14h4.38V622zm0-9.14v-8.14h4.38v8.14zm0-9.14v-8.12h4.38v8.14zm0-9.14v-8.14h4.38v8.14zm0-9.14v-8.14h4.38v8.14zm0-9.14v-8.14h4.38v8.14zm0-9.14V559h4.38v8.14zm0-9.14v-8.12h4.38v8.1zm0-9.14v-8.14h4.38v8.14zm0 92.4h4.38v8.14h-4.38zm4.38-101.54h-4.38v-8.14h4.38zm-4.38 110.68h4.38v8.14h-4.38zm4.38-119.82h-4.38v-9h4.38zm-10.06-37.53v7.39H90.35v-7.39zm-49.07 8.39h48.36l-5.77 5.77H96.83zm-5.39 6.77h59.14v12.42H85.67zm30.07 122.91V623h22.15v8.14zm22.15 1v8.14h-22.15v-8.14zM115.74 622v-8.14h22.15V622zm0-9.14v-8.14h22.15v8.14zm0-9.14v-8.12h22.15v8.14zm0-9.14v-8.14h22.15v8.14zm0-9.14v-8.14h22.15v8.14zm0-9.14v-8.14h22.15v8.14zm0-9.14V559h22.15v8.14zm0-9.14v-8.12h22.15v8.1zm-1 0H92.59v-8.12h22.15zm0 1v8.14H92.59V559zm0 9.14v8.14H92.59v-8.14zm0 9.14v8.14H92.59v-8.14zm0 9.14v8.14H92.59v-8.14zm0 9.14v8.14H92.59v-8.12zm0 9.14v8.14H92.59v-8.14zm0 9.14V622H92.59v-8.14zm0 9.14v8.14H92.59V623zm0 9.14v8.14H92.59v-8.14zm0 9.14v8.14H92.59v-8.12zm1 0h22.15v8.14h-22.15zm22.15-92.4h-22.15v-8.14h22.15zm-23.15 0H92.59v-8.14h22.15zM92.59 650.44h22.15v8.14H92.59zm23.15 0h22.15v8.14h-22.15zm22.15-110.68h-22.15v-8.14h22.15zm-23.15 0H92.59v-8.14h22.15zm-22.15-9.14v-9h22.15v9zm0 129h22.15v8.14H92.59zm23.15 0h22.15v8.14h-22.15zm22.15-129h-22.15v-9h22.15zm-52.22-9h5.92v155.96h-5.92zm6.92 147.06h22.15v8.86H92.59zm23.15 8.86v-8.86h22.15v8.86zm23.15 0V521.66h5.92v155.91zm6.92-9.86v-8.14h4.38v8.14zm9.76 9.86h-4.38V521.69h4.38zm1-9.86v-8.14H161v8.14zm5.39-160v-7.08h12.44v20H162zm13.44 160v-8.14h4.39v8.14zm5.39 9.86V521.66h4.38V677.52zm5.38-9.86v-8.14h4.38v8.14zm5.38.5V521.69h5.92v155.89h-5.92zm6.92.5h22.15v8.86h-22.16zm23.15 8.86v-8.86h22.15v8.86zm29.07 0h-5.92V521.66h5.92zM806.74 392.9a7 7 0 0 0-3.19.78A10 10 0 0 0 790 388a16.44 16.44 0 0 0-32.3-.85 11 11 0 0 0-17.25 9 5.25 5.25 0 0 0-1.21-.14 5.53 5.53 0 1 0 0 11.05h67.5a7.09 7.09 0 1 0 0-14.18zm0 13.18h-67.5a4.53 4.53 0 1 1 1.57-8.75.5.5 0 0 0 .67-.5v-.14-.56a10 10 0 0 1 16.27-7.69.5.5 0 0 0 .81-.31 15.44 15.44 0 0 1 30.57.7.5.5 0 0 0 .27.39.49.49 0 0 0 .47 0 9 9 0 0 1 12.95 5.34.5.5 0 0 0 .74.28 6.08 6.08 0 1 1 3.21 11.24zM899.67 600.13a26.7 26.7 0 0 0-.5 53.39v22.24a.5.5 0 0 0 1 0v-22.24a26.7 26.7 0 0 0-.5-53.39zm.5 52.39v-17.65a.5.5 0 0 0-1 0v17.65a25.7 25.7 0 1 1 1 0zM1052.7 626.83a26.7 26.7 0 1 0-27.2 26.69v22.24a.5.5 0 1 0 1 0v-22.24a26.73 26.73 0 0 0 26.2-26.69zm-26.2 25.69v-17.65a.5.5 0 0 0-1 0v17.65a25.7 25.7 0 1 1 1 0zM961.32 592.1c-8.94 0-16.21 16.1-16.21 35.9 0 18.45 6.26 22.48 15.71 22.62v26.53a.5.5 0 0 0 1 0v-26.54c9.45-.13 15.71-4.17 15.71-22.62 0-19.79-7.28-35.89-16.21-35.89zm.5 57.51v-24.27a.5.5 0 1 0-1 0v24.27c-7.52-.08-14.71-2.1-14.71-21.62 0-19.24 6.82-34.9 15.21-34.9s15.21 15.65 15.21 34.9c0 19.52-7.19 21.54-14.71 21.62zM652.93 332.07a.5.5 0 0 0 0 1h25.87a.49.49 0 0 0 .67 0h81.73a.5.5 0 0 0 0-1h-19.06v-21.74a26.7 26.7 0 1 0-1 0v21.74h-61.5v-20.61a26.73 26.73 0 0 0 26.2-26.69c0-14.57-11.84-51.7-26.7-51.7s-26.7 37.13-26.7 51.7a26.73 26.73 0 0 0 26.2 26.69v20.61zm63-48.43a25.7 25.7 0 1 1 26.2 25.69v-17.66a.5.5 0 0 0-1 0v17.65a25.72 25.72 0 0 1-25.19-25.68zm-62.5 1.13c0-13.89 11.67-50.7 25.7-50.7s25.7 36.81 25.7 50.7a25.73 25.73 0 0 1-25.2 25.69v-18.65a.5.5 0 0 0-1 0v18.65a25.73 25.73 0 0 1-25.2-25.68z"/></g></svg>