<svg data-name="Слой 1" xmlns="http://www.w3.org/2000/svg" viewBox="0 0 227.67 118.82"><path d="M164.65 108.34h-19.06V86.6a26.7 26.7 0 1 0-1 0v21.74H83.08V87.73A26.73 26.73 0 0 0 109.28 61c0-14.57-11.84-51.7-26.7-51.7S55.88 46.47 55.88 61a26.73 26.73 0 0 0 26.2 26.69v20.61h-25.7a.5.5 0 0 0 0 1h25.87a.49.49 0 0 0 .67 0h81.73a.5.5 0 0 0 0-1zm-45.26-48.43a25.7 25.7 0 1 1 26.2 25.69V67.94a.5.5 0 1 0-1 0V85.6a25.72 25.72 0 0 1-25.2-25.69zM56.88 61c0-13.89 11.67-50.7 25.7-50.7s25.7 36.81 25.7 50.7a25.73 25.73 0 0 1-25.2 25.69V68.08a.5.5 0 0 0-1 0v18.65A25.73 25.73 0 0 1 56.88 61z" fill="#35a8e0"/></svg>