<svg data-name="Слой 1" xmlns="http://www.w3.org/2000/svg" viewBox="0 0 741 635"><path d="M445.12 119.48a5.3 5.3 0 0 0 7.37 0 5.55 5.55 0 0 0 0-7.84l-7.37-7.36a5.68 5.68 0 0 0-7.83 0 5.57 5.57 0 0 0 0 7.88zM422.12 104.25l-7.36 7.37a5.58 5.58 0 0 0 0 7.84l.56.4a8 8 0 0 0 3.57 1.1 5.48 5.48 0 0 0 3.7-1.5l7.37-7.37a5.54 5.54 0 0 0 0-7.83 5.7 5.7 0 0 0-7.84 0M608.9 75.65h17.77A5.57 5.57 0 0 0 632.3 70a5.33 5.33 0 0 0-5.63-5.64H608.9a5.64 5.64 0 0 0 0 11.27M422.15 96.07a5.51 5.51 0 0 0 3.67 1.48 5.43 5.43 0 0 0 3.69-1.5 5.56 5.56 0 0 0 0-7.84l-7.36-7.37a5.71 5.71 0 0 0-7.84 0 5.56 5.56 0 0 0 .05 7.88zM256.94 29.92a5.84 5.84 0 0 0-4.67 5.57 5.59 5.59 0 0 0 5.64 5.64h54.16a5.64 5.64 0 0 0 0-11.27h-54.6zM150.81 137.56H88a5.64 5.64 0 0 0 0 11.27h62.84a5.64 5.64 0 0 0 0-11.27M441.86 97.55a5.46 5.46 0 0 0 3.7-1.51l7.36-7.37a5.54 5.54 0 0 0 0-7.83 5.69 5.69 0 0 0-7.83 0l-7.36 7.37a5.54 5.54 0 0 0 0 7.83 5.28 5.28 0 0 0 4.13 1.51M100.9 451.17c-.61-2.46-2.61-5.12-5.57-5.12h-54.6a5.64 5.64 0 0 0 0 11.28h54.6a5.59 5.59 0 0 0 5.64-5.64zM222.37 41.13h17.77a5.64 5.64 0 0 0 0-11.27h-17.77a5.64 5.64 0 0 0 0 11.27M5.63 438.25h37.7a5.64 5.64 0 1 0 0-11.28H5.63A5.59 5.59 0 0 0 0 432.61a5.34 5.34 0 0 0 5.63 5.64" fill="#fefffe"/><path fill="none" d="M270.9 11.65h23.4v10.84h-23.4z"/><path d="M276.54 22.48h12.13a5.57 5.57 0 0 0 5.63-5.63c0-3.06-2.31-5.21-5.63-5.21h-12.13a5.59 5.59 0 0 0-5.64 5.64c0 3.07 2.32 5.2 5.64 5.2M139.54 159.67h-40.3a5.58 5.58 0 0 0-5.63 5.64 5.33 5.33 0 0 0 5.63 5.63h40.3a5.64 5.64 0 0 0 0-11.27M23 446.06H5.63a5.64 5.64 0 0 0 0 11.27H23.4a5.58 5.58 0 0 0 5.6-5.64l-.06-.52c-.61-2.47-3.08-5.11-6-5.11" fill="#fefffe"/><path fill="none" d="M216.74 11.65h48.97v10.84h-48.97z"/><path d="M222.37 22.48h37.7a5.57 5.57 0 0 0 5.63-5.63c0-3.06-2.31-5.21-5.63-5.21h-37.7a5.58 5.58 0 0 0-5.63 5.64c0 3.07 2.32 5.2 5.63 5.2M50.7 382.32a5.34 5.34 0 0 0 5.64-5.64v-15.6a5.59 5.59 0 0 0-5.64-5.64 5.34 5.34 0 0 0-5.63 5.64v15.6a5.58 5.58 0 0 0 5.63 5.64M59.8 438.25h12.13a5.64 5.64 0 0 0 0-11.28H59.8a5.64 5.64 0 0 0 0 11.28M50.27 345.9a5.58 5.58 0 0 0 5.63-5.64v-43.35a5.58 5.58 0 0 0-5.63-5.64 5.34 5.34 0 0 0-5.64 5.64v43.79l.07.52a5.84 5.84 0 0 0 5.57 4.68M260.07 102.69a18.64 18.64 0 1 1 18.64-18.64 18.66 18.66 0 0 1-18.64 18.64zm-7.8-18.64a7.8 7.8 0 0 0 15.6 0 7.91 7.91 0 0 0-7.8-7.81 7.64 7.64 0 0 0-7.8 7.81zM674.41 434a5.57 5.57 0 0 0-5.63-5.63h-54.17a5.64 5.64 0 0 0 0 11.28l54.6-.05c3.21-.64 5.2-2.79 5.2-5.6M588.22 241.26a7.86 7.86 0 0 0 3.57 1.1 5.48 5.48 0 0 0 3.7-1.51l7.36-7.36a5.58 5.58 0 0 0 0-7.84 5.69 5.69 0 0 0-7.83 0l-7.36 7.35a5.54 5.54 0 0 0 0 7.83zM704.31 447h-37.7a5.64 5.64 0 0 0 0 11.28h37.7a5.59 5.59 0 0 0 5.69-5.68 5.34 5.34 0 0 0-5.64-5.64M587.66 256.9l7.36 7.36a5.3 5.3 0 0 0 7.4 0 5.54 5.54 0 0 0 0-7.83l-7.37-7.38a5.6 5.6 0 0 0-8.1.33 6.13 6.13 0 0 0 .71 7.51M704.31 428.32h-17.77a5.64 5.64 0 0 0 0 11.28h17.77A5.59 5.59 0 0 0 710 434a5.34 5.34 0 0 0-5.64-5.64M655.71 120.75a25.61 25.61 0 0 1 25.57-25.59 25.92 25.92 0 0 1 25.56 25.59 25.57 25.57 0 1 1-51.13 0zm25.57 15.17A15.12 15.12 0 0 0 696 121.18a14.75 14.75 0 0 0-14.72-14.74 15.12 15.12 0 0 0-14.74 14.74 14.75 14.75 0 0 0 14.74 14.74z" fill="#fefffe"/><path fill="none" d="M582.9 76.52h144.3v88.88H582.9z"/><path d="M594.17 76.52h121.77a11.29 11.29 0 0 1 11.27 11.27v66.34a11 11 0 0 1-11.27 11.27H594.17a11 11 0 0 1-11.27-11.27V87.79a11 11 0 0 1 11.27-11.27zm122.2 77.59V87.79a.79.79 0 0 0-.45-.43H594.17a.79.79 0 0 0-.43.45v66.32a.77.77 0 0 0 .45.43h121.75a.79.79 0 0 0 .43-.45z" fill="#fefffe"/><path d="M605.87 116.84h32.07a5.63 5.63 0 0 0 5.59-6.06c-.64-3.16-2.83-5.21-5.59-5.21h-32.07a5.64 5.64 0 0 0 0 11.27M637.94 125.51h-32.06a5.64 5.64 0 1 0 0 11.28h32.06a5.58 5.58 0 0 0 5.63-5.64l-.06-.53c-.61-2.46-2.62-5.11-5.57-5.11M571.62 248.63l-7.64 7.7a6.15 6.15 0 0 0 .71 7.51 5.3 5.3 0 0 0 7.39 0l7.38-7.37a5.54 5.54 0 0 0-7.84-7.84M179.86 584.37h-.05a5.68 5.68 0 0 0-7.82 0 5.59 5.59 0 0 0 0 7.84l7.37 7.37a5.3 5.3 0 0 0 7.39 0 5.58 5.58 0 0 0 0-7.79z" fill="#fefffe"/><path fill="none" d="M170.38 606.12h17.98v18.32h-17.98z"/><path d="M183.72 606.15a5.48 5.48 0 0 0-4.37 1.58L172 615.1a5.58 5.58 0 0 0 0 7.83 5.3 5.3 0 0 0 7.4 0l7.37-7.37a5.51 5.51 0 0 0 1.61-3.92 5.07 5.07 0 0 0-1.34-3.59 4.42 4.42 0 0 0-3.3-1.91" fill="#fefffe"/><path fill="none" d="M193.78 606.11h17.98v18.33h-17.98z"/><path d="M203.26 607.78a5.53 5.53 0 0 0-7.82 0 5.56 5.56 0 0 0 0 7.84l7.36 7.36a5.39 5.39 0 0 0 7.45-7.78zM560.5 528.34c-2.56-8.73-5.28-17.46-8-26.11-1.86-6-3.7-11.87-5.47-17.71-10.71-34.82-42.6-54.5-83.27-51.39l-6.57.51c-4.37.37-8.51.72-13.17.78-2.5-5.31-10.33-25.73.53-54.72l1.64-1.63h51.1a3.85 3.85 0 0 0 2-.46 2.41 2.41 0 0 0 1.18-.41h.31l1.06-1.06a3.59 3.59 0 0 0 1.08-2.41l5.07-14.1c5.28-1 10.68-3.23 16.94-7.09a45 45 0 0 0-12.32-80.1 118.22 118.22 0 0 0 .71-11.87C513.36 191 457 134.4 387.68 134.4c-70 .44-127 57-127 126.17 0 4.2.33 8.09.7 11.85a47.37 47.37 0 0 0-24.15 17.28 44.64 44.64 0 0 0-7.23 33.71 45.13 45.13 0 0 0 18.65 29.11 43.42 43.42 0 0 0 25.52 8.2 50 50 0 0 0 8.32-.93 5.54 5.54 0 0 0 4.21-6.39l-13.83-77.22v-.82a85.74 85.74 0 0 1-1.26-15.22c0-63.6 51.51-115.33 114.83-115.33s114.83 51.73 114.83 115.33c0 5.15-.44 10.43-.83 15.21l-14.27 77.91a5.59 5.59 0 0 0 4.4 6.57c1.65.28 3.33.56 5 .73l-2.34 6.23h-38a120.11 120.11 0 0 0 14.2-28.23c10.31-1 17.95-15.74 17.95-35.07 0-15.89-4.76-28.45-12.51-33.31 1.26-10.06 2.55-20.45 3.4-31.15 3.11-47.13-10.2-53.67-34.14-61.21a20.9 20.9 0 0 1-2-.66 25.27 25.27 0 0 0-3.46-1c-19.4-6.17-38.87-7.47-51.79-7.47-13.16 0-32.83 1.3-51.66 7.44-.91.23-1.94.57-3 .91s-1.83.62-2.77.86c-23.81 7.5-37.13 14-34 61.21.89 10.7 2.23 21.75 3.4 31.07-7.64 4.67-12.51 17.5-12.51 33.35 0 19.33 7.64 34.08 17.95 35.07a125.47 125.47 0 0 0 23.49 40.2c10.28 28.05 2.95 48.83.13 55.14-2.23-.15-4.34-.24-6.41-.33-2.56-.11-5.07-.22-7.68-.43l-5.22-.44c-40.7-3.24-72.6 16.52-83.3 51.26-4.79 14.38-9.2 29.38-13.46 43.88l-.08 3.67 3 3h338.89v.45h3a2.63 2.63 0 0 0 2.07-1 2.47 2.47 0 0 0 .71-.88l1.12-1.55v-2.2zm-285-178.73a32.94 32.94 0 0 1-20.43-5.82 35.06 35.06 0 0 1-14.31-22 34.43 34.43 0 0 1 22.61-38.46zm234.79-65.88a36 36 0 0 1 16.92 12.79 33.72 33.72 0 0 1 5.69 25.66 33.29 33.29 0 0 1-14.13 21.93 40.84 40.84 0 0 1-20.58 5.83zM332.31 189h.05c.9-.22 1.92-.56 2.93-.89s1.84-.62 2.82-.88c13.06-4.35 29.47-6.79 48.71-7.25 17.38 0 34.68 2.58 49 7.32a21.42 21.42 0 0 1 3.1.94c.84.29 1.64.58 2.35.75 19.39 5.78 29.13 8.68 26.19 49.77l-.52 6.09c-4.51-9.33-10.21-14.51-17-15.43-9.32-1-29.88-1.51-57.92-1.33h-1.41c-.23 0-17 1-35.14-16.72a5.31 5.31 0 0 0-4.13-1.5 4.31 4.31 0 0 0-3.88 2.14 21.18 21.18 0 0 0-3.8 18.12c-11.12-1.53-24.11-1.43-29.9 5.61-2.6 2.89-4.81 7.13-6.78 11.84-.23-2.57-.43-5.11-.62-7.61l-.1-1.2c-2.95-41.15 6.14-43.86 26.05-49.77zm-18.38 142.49l-.15-.53-.39-.39a13.21 13.21 0 0 0-3.16-2.57l-.46-.23h-.22a3.45 3.45 0 0 0-1.59-.43 3.74 3.74 0 0 0-2.62.87c-2.47 0-8.22-8.29-8.22-24.28 0-14.06 4.34-22.39 7.42-23.87a5 5 0 0 0 4.71-4.44c4.17-16.67 8.6-28.27 12.5-32.74 3.11-3.74 19.07-2.65 31.89.67 2.16.73 4.91-.38 6.39-2.59a4.86 4.86 0 0 0 .71-3.66 5.09 5.09 0 0 0-2.08-3.18c-3.44-2.58-5-5.62-4.78-9.05 17.31 14.15 32.73 14.83 37.57 14.69 7.2-.06 43.82-.28 57.5 1.28 7.39.92 13.49 20.78 15.44 34.27a4.79 4.79 0 0 0 1.87 3.79 5 5 0 0 0 3.41 1c3.13 1.92 7.29 10.94 7.29 23.78 0 16-5.78 24.28-8.24 24.28a1.23 1.23 0 0 1-.72-.16 4.92 4.92 0 0 0-4.54 0 6.6 6.6 0 0 0-2.84 3.48 110 110 0 0 1-18.48 35.75h-32.2a11.32 11.32 0 0 0-10.12-6.51h-24.7A11.28 11.28 0 0 0 363.86 372v.86a11.28 11.28 0 0 0 11.26 11.28h24.7a11.32 11.32 0 0 0 10.12-6.51h21.67C418.66 389 403.42 395 387.26 395c-18.18 0-35.24-7.63-49.37-22.09a5.4 5.4 0 0 0-2.15-2.19 99.58 99.58 0 0 1-21.81-39.23zm103.86 95a5.76 5.76 0 0 0-5-2.94H360a5.54 5.54 0 0 0-5 2.93 6.77 6.77 0 0 0-.12 5.13l9.27 15.7-5.77 23.84a199.82 199.82 0 0 1-22.23-29.69c2.08-3.56 11.63-21.88 6.37-49.61 13.69 9.41 28.76 14.36 43.88 14.36a76.62 76.62 0 0 0 43.42-13.85c-5 26.22 3 43.8 6.08 49.27a3.56 3.56 0 0 0 .3.75 190 190 0 0 1-21.35 28.68l-5.77-24.19 8.72-15a7 7 0 0 0-.01-5.34zm-43.13 25.24H399l6.93 28.53a154.58 154.58 0 0 1-19.15 16.1 156.84 156.84 0 0 1-19-15.72 4.09 4.09 0 0 0 0-.47zm-5.3-16.91h34.05l-3.53 6.07h-27zm30-62.85v.83a.85.85 0 0 1-.43.46h-24.66a.84.84 0 0 1-.45-.44V372a.83.83 0 0 1 .44-.46h24.67a.81.81 0 0 1 .46.46zM224.61 524.61c3.57-12.33 7.28-25 11.31-37.08 9.19-29.67 36.87-46.51 72.29-44l5.18.43c2.41.22 4.59.32 6.77.44 1.82.09 3.63.18 5.57.34 24 39.79 50.33 58.15 57.83 62.76a4.07 4.07 0 0 0 3.26 1.07 4 4 0 0 0 1.92-.4l.55.11.63-.63.71-.48a171.38 171.38 0 0 0 24.59-20.05 218.91 218.91 0 0 0 32.7-42c1.76-.15 3.52-.24 5.28-.33 2.21-.11 4.42-.22 6.59-.44l5.65-.43c35.23-2.93 63 13.92 72.28 44 1.69 5.66 3.47 11.32 5.26 17 2 6.48 4.09 13 6 19.64zM563.82 225.65a5.56 5.56 0 0 0 0 7.88l7.76 7.33A5.39 5.39 0 0 0 579 233l-7.36-7.37a5.71 5.71 0 0 0-7.84 0M135.37 214.84a56.57 56.57 0 0 0-6-3.07 57.5 57.5 0 0 1-64.25-37.06A61.42 61.42 0 0 1 63.76 141a59.44 59.44 0 0 1 17.57-28.9 65.56 65.56 0 0 1 18.88-11.26c29.63-10.78 62.57 4.78 73.43 34.67a57.28 57.28 0 0 1-23.56 68.23c.26 1.34.83 3.25 1.31 4.88.37 1.26.74 2.51 1 3.64a4.9 4.9 0 0 1 .08 3.9 4.33 4.33 0 0 1-2.64 3 3.79 3.79 0 0 1-2.52.78c-2.67-.01-5.91-1.38-11.94-5.1zm3.81-10.62c-.67-4.54.69-7.33 4.17-8.78a46.71 46.71 0 0 0-39-84.46A43.88 43.88 0 0 0 89 120.09a46.67 46.67 0 0 0-14.1 23.24 43.73 43.73 0 0 0 1.23 27.27c7.38 21.33 30.65 34.42 53 29.87l.22-.05h1.08c1.89 0 3.78 1.05 7.54 3.14zM650.15 447H638a5.64 5.64 0 0 0 0 11.28h12.14a5.58 5.58 0 0 0 5.63-5.64 5.34 5.34 0 0 0-5.63-5.64M399.82 594.41a17.34 17.34 0 1 1 17.33 17.35 17.58 17.58 0 0 1-17.33-17.35zm17.33 6.94a6.51 6.51 0 1 0-6.5-6.5 6.51 6.51 0 0 0 6.5 6.5zM206.45 582.71a5.22 5.22 0 0 0-3.7 1.61l-7.37 7.37a5.56 5.56 0 0 0 0 7.84 5.3 5.3 0 0 0 7.39 0l7.37-7.37a5.51 5.51 0 0 0 1.61-3.92 5.46 5.46 0 0 0-1.61-3.91 5.25 5.25 0 0 0-3.7-1.62" fill="#fefffe"/></svg>