<svg data-name="Слой 1" xmlns="http://www.w3.org/2000/svg" viewBox="0 0 106 100"><path d="M88.66 2H17.34A12.3 12.3 0 0 0 5 14.34v71.32A12.3 12.3 0 0 0 17.34 98h71.32A12.3 12.3 0 0 0 101 85.66V14.34A12.3 12.3 0 0 0 88.66 2zM53 31.49c11.66 0 19.89 8.22 19.89 18.51S64 68.51 53 68.51 33.11 60.29 33.11 50 42.71 31.49 53 31.49zm37.71 51.42a3.67 3.67 0 0 1-3.42 3.43H19.4a3.67 3.67 0 0 1-3.4-3.43V42.46h8.92a34.15 34.15 0 0 0-1.38 8.23c0 15.77 13.72 28.8 30.18 28.8s30.17-12.35 30.17-28.8a34.63 34.63 0 0 0-1.37-8.23h8.22zm0-55.54a4 4 0 0 1-4.11 4.12h-11a4 4 0 0 1-4.12-4.12V17.09A4 4 0 0 1 75.63 13h11a4 4 0 0 1 4.11 4.12z" fill="#fff" fill-opacity=".54"/></svg>