<svg data-name="Слой 1" xmlns="http://www.w3.org/2000/svg" viewBox="0 0 880 196"><path d="M418.57 186.49q14.82 0 20.68-6.16t5.85-20.92v-58.84q0-10.09-4.42-14.16c-2.94-2.71-7.21-4.06-12.78-4.06h-21.76a6.63 6.63 0 0 1-3.95-1c-.87-.66-1.31-1.89-1.31-3.7V45.18q0-3.94 4.3-3.94h39.21L438.41 8H390.6q-12.19 0-17.81 6.28t-5.62 16.86v60.57a29.59 29.59 0 0 0 1.55 10.58 14.54 14.54 0 0 0 4.31 6.16 13.56 13.56 0 0 0 6.21 2.83 41.8 41.8 0 0 0 7.3.61h17.93a12 12 0 0 1 5 .74c.95.49 1.43 2 1.43 4.43v32.5q0 3.69-4.06 3.69h-37.3l6.22 33.24zM570.09 31.14V162.7l-21.3-5.31c-.7-2.17-.06-4 .52-5.67.15-.44.31-.87.42-1.29h-10.58l-1.38-11.3c-.91-.93-4.58-2.68-5.79-3.18-.05-1.68 0-3.38 0-5.07v-2-1.86c-.09-2-.13-2.82 1.46-4 .09-2.17-.09-9.27-1.15-10.55-.61.9-1 4.1-1.23 5.41h-3.64c.64-1.79-1.76-50.17-2.33-60.48-.1-1.79 0-2 .15-2.46a8.21 8.21 0 0 0 .34-1.09c-.51-1.15-.6-.43-.76-1.76a9.89 9.89 0 0 1 0-1 3.21 3.21 0 0 0-.23-1.44 3 3 0 0 0-.24 1.43 7.92 7.92 0 0 1-.05 1c-.16 1.28-.28.65-.76 1.77a.52.52 0 0 0 .1.32c.17.33.5 1 .38 3.52l-2.51 60.29-3.42-.11c-.21-1.6-.16-4.28-1-5.4-1.36 1.79-1.55 8-1.45 10.57 1.59 1.17 1.55 2.06 1.46 4v8.91l-5.75 2.89-1.42 11.59h-10.58c.2.75.4 1.31.58 1.81a8.55 8.55 0 0 1 .43 5.14l-20 5V31.18q0-10.58 5.61-16.86T503.63 8h43q12.2 0 17.81 6.28t5.65 16.86zm107.06 122.11l-6.22 33.24H632.2q-15.06 0-21-6.4t-6-21.18v-129q0-10.59 5.86-16.25A20 20 0 0 1 625.51 8h45.66l6 33.24h-33.26c-2.07 0-3.11 1.14-3.11 3.44v105.13q0 3.44 3.11 3.44zM802 8h-35.36v76.32h-18.89V8h-35.39v178.49h35.39v-71.4h18.89v71.4H802zm69.75 178.49h-34.64V8h34.66zM521.64 42.94c2.45-.79 1.49-.79 2.81-1.92l.47.49s.09.12.13.17c.83.93.79.8 2.19 1.27-.86 1.66-.91 1.07-1 3.47a13.49 13.49 0 0 0-1.78-.27 6.72 6.72 0 0 0-1.05.14l-.72.13c-.15-2.42-.21-1.75-1.05-3.48zm-.27 80.87h-2.72v12.08h2.64zm6.17 0h2.72l-.09 12.08h-2.64zm-1.71.08l-2.76-.07v12h2.7zm8.08 19.46c-.49-1 .25-2.1 1.12-1.16.57.6.12 1.74-1.12 1.14zm-19.81 0c.3.29 1.22.54 1.24-.58v-.11a2.84 2.84 0 0 0 0-.6c0 .07-.12.2-.26 0-1.23-.44-1.73.55-.98 1.28zm10.94 0a.7.7 0 0 1-1.13-.11c-.57-.93.1-1.17.17-1.19 1.19-.36 1.73.53.92 1.29zm1.57 1.62l-4.11-.13v5.54h4.15zm5.84-.12h4.07v5.54h-4.12zm-19.9 0h4.13v5.54l-4.15-.13zm57.3 20.81l-44.4-10.07c-1.62-.31-22.36 4.49-34.49 7.3-3.37.79-6.08 1.41-7.52 1.73-.57.13-1.68.35-3 .63a37.91 37.91 0 0 0 .66 4.2c2.35-1 4.86.62 5 3.68.06 1.59.12 4.11.1 6.5a20.09 20.09 0 0 0 4.68 3.61l.19-13.35c.92-5.1 6.93-4.79 8-.74.31 1.16.29 13.64.06 15.12h-6.33l.33.15a30 30 0 0 0 11.95 2.09h40.17a30 30 0 0 0 11.95-2.09l.25-.11h-6.75a131.52 131.52 0 0 1 0-14.59 4.29 4.29 0 0 1 3.64-3.58 3.88 3.88 0 0 1 2.84.81c.92.7.85 1 1.47 1.81l.31.39v14.4a19.84 19.84 0 0 0 4.86-3.57v-7.8c.85-2.91 3.48-3.59 5.32-2.57a35 35 0 0 0 .71-3.93zm-51.34 7.84a106.66 106.66 0 0 0 .11 10.67l12.58.11a89.31 89.31 0 0 0 .16-10.94c0-1.59-.08-3.09-.07-4.33 0-4.06-.61-9.19-6.26-9.26-5.43-.05-6.46 4.46-6.46 9 0 1.48 0 3.1-.06 4.77zm17.62 1.33c0-1.29.06-2.49.06-3.45v-1.18a8.14 8.14 0 0 1 .75-4.58 4.66 4.66 0 0 1 8.17.17c1.11 2.09.85 16.45.51 18.5h-9.3a70.18 70.18 0 0 1-.19-9.44zm-31.3-9.19c-1.24 2-.89 16.34-.62 18.59h9.41c.21-2.74.15-6 .1-9 0-1.35-.05-2.66-.05-3.88 0-4.13-.27-8-4.71-8.07a4.77 4.77 0 0 0-4.13 2.38z" fill="#009ecc"/><path d="M59.4 186.49q14.82 0 20.68-6.16t5.86-20.92v-58.84q0-10.09-4.42-14.16t-12.8-4.06H47a6.61 6.61 0 0 1-3.95-1c-.87-.66-1.31-1.89-1.31-3.7V45.18q0-3.94 4.3-3.94h39.18L79.24 8H31.43q-12.19 0-17.81 6.28T8 31.14v60.57a29.59 29.59 0 0 0 1.55 10.58 14.54 14.54 0 0 0 4.31 6.16 13.56 13.56 0 0 0 6.21 2.83 41.8 41.8 0 0 0 7.3.61H45.3a12.06 12.06 0 0 1 5 .74c1 .49 1.43 2 1.43 4.43v32.5c0 2.46-1.35 3.69-4.07 3.69H10.39l6.22 33.24zm124.27 0q15.06 0 21-6.4t6-21.18V8H175.3v143.29a5.78 5.78 0 0 1-.6 3c-.4.66-1.31 1-2.75 1h-12.19c-1.44 0-2.35-.32-2.75-1a5.78 5.78 0 0 1-.6-3V8H121v150.91q0 14.78 6 21.18t21 6.4zM278.77 8h-33v178.49h32v-74.6l18.64 74.6h35.63V8h-35.59v71.64z" fill="#f89d21"/></svg>