<svg data-name="Слой 1" xmlns="http://www.w3.org/2000/svg" viewBox="0 0 870.67 185.33"><path d="M413.9 181.16q14.84 0 20.68-6.16t5.86-20.92V95.23q0-10.1-4.42-14.15T423.23 77h-21.76a6.5 6.5 0 0 1-3.94-1q-1.32-1-1.32-3.69V39.84c0-2.62 1.44-3.94 4.3-3.94h39.21l-6-33.23h-47.79q-12.19 0-17.81 6.28t-5.61 16.86v60.56A29.47 29.47 0 0 0 364.06 97a14.49 14.49 0 0 0 4.3 6.15 13.49 13.49 0 0 0 6.22 2.83 40.72 40.72 0 0 0 7.29.62h17.93a11.87 11.87 0 0 1 5 .74c.95.49 1.44 2 1.44 4.43v32.5q0 3.69-4.07 3.69h-37.3l6.22 33.24zM565.42 25.81v131.56l-21.3-5.31c-.7-2.17-.06-4 .52-5.67.16-.45.31-.88.43-1.3h-10.59l-1.38-11.31c-.91-.92-4.57-2.67-5.78-3.17v-7.08-1.86c-.09-2-.13-2.82 1.47-4 .09-2.16-.1-9.26-1.16-10.54-.61.9-1 4.1-1.23 5.4h-3.64c.65-1.8-1.76-50.18-2.33-60.49-.1-1.79 0-2 .16-2.45a8.63 8.63 0 0 0 .33-1.09c-.5-1.15-.59-.44-.75-1.77a6.12 6.12 0 0 1 0-1 3.25 3.25 0 0 0-.24-1.45 3.08 3.08 0 0 0-.24 1.43 7.79 7.79 0 0 1 0 1c-.16 1.28-.29.65-.76 1.77a.55.55 0 0 0 .09.31c.17.33.51 1 .38 3.53l-2.51 60.29-3.42-.11c-.21-1.6-.15-4.28-1-5.41-1.36 1.8-1.55 8-1.44 10.58 1.59 1.17 1.55 2 1.46 4 0 .52-.05 1.13-.05 1.84v7.06l-5.75 2.9-1.42 11.59h-10.58c.2.74.41 1.31.59 1.81a8.47 8.47 0 0 1 .42 5.14l-20 5V25.81q0-10.59 5.62-16.86T499 2.67h43q12.19 0 17.82 6.28t5.6 16.86zM672.48 147.92l-6.22 33.24h-38.73q-15.06 0-21-6.4t-6-21.18v-129q0-10.59 5.86-16.25a20 20 0 0 1 14.47-5.66h45.64l6 33.23h-33.26c-2.06 0-3.1 1.15-3.1 3.45v105.12c0 2.3 1 3.45 3.1 3.45zM797.35 2.67h-35.38v76.31h-18.89V2.67H707.7v178.49h35.38v-71.4h18.89v71.4h35.38V2.67zM832.45 2.67h34.66v178.49h-34.66z" fill="#009ecc"/><path d="M517 37.61c2.45-.8 1.48-.79 2.8-1.92l.47.48.14.17c.82.94.79.81 2.19 1.28-.86 1.66-.91 1.06-1 3.47a13.2 13.2 0 0 0-1.77-.27 5 5 0 0 0-1.06.14l-.72.12c-.18-2.47-.24-1.75-1.05-3.47zM516.7 118.47l-2.72-.02-.01 12.08 2.64.02.09-12.08zM522.87 118.45l2.73.02-.1 12.08-2.63-.01v-12.09zM521.16 118.53l-2.75-.06-.01 12.03 2.7.03.06-12zM529.25 138c-.5-1 .25-2.1 1.12-1.16.57.61.12 1.76-1.12 1.16zM509.43 138c.3.29 1.23.54 1.25-.58v-.11-.6c0 .07-.12.2-.26 0-1.24-.42-1.74.57-.99 1.29zM520.37 138a.7.7 0 0 1-1.13-.12c-.57-.92.1-1.16.17-1.19 1.2-.33 1.74.55.96 1.31zM521.94 139.63l-4.11-.14-.05 5.55 4.16-.01v-5.4zM527.79 139.5l4.07.02-.02 5.54h-4.13l.08-5.56zM507.88 139.53h4.13l-.02 5.54-4.14-.12.03-5.42zM520.78 150.28c-1.62-.31-22.36 4.49-34.48 7.3-3.38.78-6.08 1.41-7.53 1.73-.56.13-1.68.35-3 .62a40 40 0 0 0 .66 4.2c2.35-1 4.86.63 5 3.69.07 1.59.13 4.11.11 6.49a19.56 19.56 0 0 0 4.67 3.61l.19-13.34c.92-5.1 6.93-4.8 8-.74.32 1.16.3 13.64.07 15.11h-6.34l.33.14a29.78 29.78 0 0 0 11.95 2.1h40.17a29.78 29.78 0 0 0 12-2.1l.25-.11H546a131.55 131.55 0 0 1 0-14.59 4.27 4.27 0 0 1 3.64-3.58 3.88 3.88 0 0 1 2.84.81c.92.7.86 1 1.47 1.81l.31.38v14.41a19.91 19.91 0 0 0 4.86-3.57l.05-7.8c.86-2.91 3.48-3.59 5.32-2.57a35.21 35.21 0 0 0 .65-3.92zM509 179h-9.41c-.28-2.25-.62-16.57.61-18.59a4.77 4.77 0 0 1 4.13-2.34c4.44 0 4.72 3.94 4.71 8.07 0 1.22 0 2.53.05 3.87.02 2.99.08 6.2-.09 8.99zm17.57 0l-12.58-.1c-.26-3.12-.19-7-.11-10.67 0-1.66.07-3.28.06-4.76 0-4.5 1-9 6.46-9 5.66.06 6.26 5.2 6.26 9.25 0 1.25 0 2.75.07 4.34a87.19 87.19 0 0 1-.2 10.94zm14.4 0h-9.3a68.67 68.67 0 0 1-.16-9.44c0-1.3.06-2.5 0-3.45v-1.18a8.13 8.13 0 0 1 .74-4.58 4.66 4.66 0 0 1 8.17.17c1.11 2.04.85 16.4.51 18.48z" fill="#009ecc"/><path d="M54.73 181.16q14.84 0 20.69-6.16t5.85-20.92V95.23q0-10.1-4.42-14.15T64.06 77H42.3a6.5 6.5 0 0 1-3.94-1Q37 75 37 72.34v-32.5c0-2.62 1.44-3.94 4.31-3.94h39.2l-6-33.23H26.76Q14.56 2.67 9 9T3.33 25.81v60.56A29.44 29.44 0 0 0 4.89 97a14.49 14.49 0 0 0 4.3 6.15 13.46 13.46 0 0 0 6.21 2.83 40.92 40.92 0 0 0 7.3.62h17.93a11.87 11.87 0 0 1 5 .74c1 .49 1.43 2 1.43 4.43v32.5q0 3.69-4.06 3.69H5.72l6.22 33.24zm124.27 0q15.06 0 21-6.4t6-21.18V2.67h-35.37V146a5.87 5.87 0 0 1-.59 3q-.6 1-2.76 1h-12.19c-1.43 0-2.35-.33-2.74-1a5.76 5.76 0 0 1-.6-3V2.67h-35.38v150.91q0 14.78 6 21.18t21 6.4zM274.1 2.67h-33v178.49h32v-74.6l18.65 74.6h35.62V2.67h-35.58v71.64z" fill="#f89d21"/></svg>