<svg data-name="Слой 1" xmlns="http://www.w3.org/2000/svg" viewBox="0 0 94 185.67"><g fill="#009ecc"><path d="M91 26.9v130.22l-21.09-5.26a8.34 8.34 0 0 1 .52-5.61c.15-.44.3-.86.42-1.28H60.38L59 133.75c-.9-.91-4.52-2.65-5.72-3.14-.05-1.66 0-3.35 0-5v-2c0-.71 0-1.32-.05-1.84-.08-1.94-.12-2.79 1.45-4 .09-2.15-.09-9.17-1.14-10.44-.6.89-1 4.06-1.22 5.35h-3.6C49.36 110.9 47 63 46.42 52.8a5.21 5.21 0 0 1 .15-2.43 9.65 9.65 0 0 0 .33-1.08c-.5-1.13-.59-.42-.75-1.74a8.34 8.34 0 0 1 0-1 3.17 3.17 0 0 0-.23-1.43 3 3 0 0 0-.24 1.42 8.34 8.34 0 0 1 0 1c-.16 1.26-.28.64-.75 1.74a.62.62 0 0 0 .09.32c.17.32.5 1 .38 3.49l-2.49 59.68-3.39-.11c-.21-1.58-.15-4.24-.94-5.35-1.35 1.78-1.54 7.92-1.44 10.47 1.58 1.16 1.54 2 1.45 4v8.82l-5.7 2.86-1.4 11.48H21a18.73 18.73 0 0 0 .59 1.79 8.45 8.45 0 0 1 .41 5.09l-20 4.94V26.9q0-10.48 5.57-16.7T25.2 4h42.6q12.08 0 17.63 6.2T91 26.9z"/><path d="M45.81 36.67c-1.31 1.13-.35 1.12-2.78 1.91.83 1.7.89 1 1 3.44l.71-.13a7.56 7.56 0 0 1 1-.14 13 13 0 0 1 1.75.27c.12-2.38.16-1.79 1-3.44-1.39-.46-1.35-.33-2.17-1.26l-.13-.16zM40.07 118.61h2.69l-.09 12h-2.61l.01-12zM51.57 118.61h-2.7v12h2.61l.09-12zM44.45 118.61l2.73.07-.06 11.88h-2.67v-11.95zM56.29 136.8c-.86-.93-1.6.14-1.11 1.15 1.23.6 1.67-.53 1.11-1.14zM36.8 137.38c0 1.11-.94.87-1.23.58-.75-.73-.25-1.71.94-1.28.14.23.21.1.25 0v.59zM45.27 137.84a.7.7 0 0 0 1 .25.65.65 0 0 0 .16-.13c.77-.76.24-1.64-.94-1.3-.08 0-.74.28-.18 1.19zM43.88 139.43l4.07.13v5.35h-4.12l.05-5.48zM57.76 139.43h-4l-.08 5.49h4.08v-5.49zM38.12 139.43H34v5.36l4.11.12.01-5.48zM46.8 150.06v.05c-1.61-.31-22.13 4.45-34.19 7.15-3.34.78-6 1.4-7.45 1.71-.56.13-1.66.35-3 .62a34.27 34.27 0 0 0 .65 4.16c2.33-1 4.81.65 4.94 3.65.1 1.57.1 4.07.1 6.43a19.82 19.82 0 0 0 4.63 3.57l.19-13.21c1-5.05 6.91-4.73 8-.73.31 1.18.29 13.54.06 15h-6.27l.33.15a29.55 29.55 0 0 0 11.83 2.07H66.4a29.55 29.55 0 0 0 11.83-2.07l.25-.11h-6.66a133.76 133.76 0 0 1 0-14.44 4.23 4.23 0 0 1 3.61-3.54 3.79 3.79 0 0 1 2.81.8c.91.69.84 1 1.45 1.79l.31.38v14.26a19.62 19.62 0 0 0 4.89-3.55v-7.73c.85-2.88 3.45-3.54 5.27-2.54a36.3 36.3 0 0 0 .64-3.87zM35 178.5h-9.26c-.27-2.23-.61-16.41.61-18.41a4.76 4.76 0 0 1 4.09-2.32c4.39 0 4.66 3.91 4.66 8v3.84c.09 2.97.15 6.18-.1 8.89zm17.45 0L40 178.41c-.22-3.09-.15-6.94-.07-10.57v-.05c0-1.66.06-3.27.06-4.74 0-4.45 1-8.92 6.39-8.87 5.6.06 6.2 5.15 6.2 9.16 0 1.24 0 2.72.07 4.29a85.08 85.08 0 0 1-.16 10.83zm14.3 0h-9.2a67.85 67.85 0 0 1-.16-9.35v-3.37a10.54 10.54 0 0 1 0-1.22 8 8 0 0 1 .74-4.54 4.55 4.55 0 0 1 1.86-1.78 4.6 4.6 0 0 1 6.22 1.95c1.18 2.02.92 16.26.58 18.26z"/></g></svg>