<svg xmlns="http://www.w3.org/2000/svg" viewBox="0 0 89 176.69"><g data-name="Слой 2"><g data-name="Слой 1"><rect x=".84" y="21.53" width="87.96" height="155.16" rx="22" ry="22" fill="#fff"/><path d="M83.43 6.2Q77.88 0 65.8 0H23.2Q11.14 0 5.57 6.2T0 22.9v129.86l20-4.94a8.45 8.45 0 0 0-.41-5.09 18.73 18.73 0 0 1-.59-1.79h10.49l1.4-11.48 5.7-2.86v-8.82c.09-2 .13-2.84-1.45-4-.1-2.55.09-8.69 1.44-10.47.79 1.11.73 3.77.94 5.35l3.39.11 2.49-59.68c.12-2.49-.21-3.17-.38-3.49a.62.62 0 0 1-.09-.32c.47-1.1.59-.48.75-1.74a8.34 8.34 0 0 0 0-1 3 3 0 0 1 .24-1.42 3.17 3.17 0 0 1 .23 1.43 8.34 8.34 0 0 0 0 1c.16 1.32.25.61.75 1.74a9.65 9.65 0 0 1-.33 1.08 5.21 5.21 0 0 0-.15 2.43c.56 10.21 2.94 58.1 2.3 59.88h3.6c.22-1.29.62-4.46 1.22-5.35 1.05 1.27 1.23 8.29 1.14 10.44-1.57 1.21-1.53 2.06-1.45 4 .05.52.05 1.13.05 1.84v2c0 1.65-.05 3.34 0 5 1.2.49 4.82 2.23 5.72 3.14L58.38 141h10.47c-.12.42-.27.84-.42 1.28a8.34 8.34 0 0 0-.52 5.61L89 153.12V22.9q0-10.5-5.57-16.7zM45.54 38a13 13 0 0 0-1.75-.27 7.56 7.56 0 0 0-1 .14L42 38c-.11-2.44-.17-1.74-1-3.44 2.43-.79 1.47-.78 2.78-1.91l.43.49.13.16c.82.93.78.8 2.17 1.26-.81 1.67-.85 1.08-.97 3.44z" fill="#009ecc"/><path fill="#009ecc" d="M38.07 114.61h2.69l-.09 12h-2.61l.01-12zM49.57 114.61h-2.7v12h2.61l.09-12zM42.45 114.61l2.73.07-.06 11.88h-2.67v-11.95zM54.29 132.8c-.86-.93-1.6.14-1.11 1.15 1.23.6 1.67-.53 1.11-1.14zM34.8 133.38c0 1.11-.94.87-1.23.58-.75-.73-.25-1.71.94-1.28.14.23.21.1.25 0v.59zM43.27 133.84a.7.7 0 0 0 1 .25.65.65 0 0 0 .16-.13c.77-.76.24-1.64-.94-1.3-.08 0-.74.28-.18 1.19zM41.88 135.43l4.07.13v5.35h-4.12l.05-5.48zM55.76 135.43h-4l-.08 5.49h4.08v-5.49zM36.12 135.43H32v5.36l4.11.12.01-5.48zM44.8 146.06v.05c-1.61-.31-22.13 4.45-34.19 7.15-3.34.78-6 1.4-7.45 1.71-.56.13-1.66.35-3 .62a34.27 34.27 0 0 0 .65 4.16c2.33-1 4.81.65 4.94 3.65.1 1.57.1 4.07.1 6.43a19.82 19.82 0 0 0 4.63 3.57l.19-13.21c1-5.05 6.91-4.73 8-.73.31 1.18.29 13.54.06 15h-6.27l.33.15a29.55 29.55 0 0 0 11.83 2.07H64.4a29.55 29.55 0 0 0 11.83-2.07l.25-.11h-6.66a133.76 133.76 0 0 1 0-14.44 4.23 4.23 0 0 1 3.61-3.54 3.79 3.79 0 0 1 2.81.8c.91.69.84 1 1.45 1.79l.31.38v14.26a19.62 19.62 0 0 0 4.89-3.55v-7.73c.85-2.88 3.45-3.54 5.27-2.54a36.3 36.3 0 0 0 .64-3.87zM33 174.5h-9.26c-.27-2.23-.61-16.41.61-18.41a4.76 4.76 0 0 1 4.09-2.32c4.39 0 4.66 3.91 4.66 8v3.84c.09 2.97.15 6.18-.1 8.89zm17.45 0L38 174.41c-.22-3.09-.15-6.94-.07-10.57v-.05c0-1.66.06-3.27.06-4.74 0-4.45 1-8.92 6.39-8.87 5.6.06 6.2 5.15 6.2 9.16 0 1.24 0 2.72.07 4.29a85.08 85.08 0 0 1-.16 10.83zm14.3 0h-9.2a67.85 67.85 0 0 1-.16-9.35v-3.37a10.54 10.54 0 0 1 0-1.22 8 8 0 0 1 .74-4.54 4.55 4.55 0 0 1 1.86-1.78 4.6 4.6 0 0 1 6.22 1.95c1.18 2.02.92 16.26.58 18.26z"/></g></g></svg>