<svg data-name="Слой 1" xmlns="http://www.w3.org/2000/svg" viewBox="0 0 94 185.67"><path d="M91 26.9v130.22l-21.09-5.26c-.69-2.14-.05-4 .52-5.61.15-.44.3-.86.42-1.28H60.38L59 133.75c-.9-.91-4.52-2.65-5.72-3.14-.05-1.66 0-3.35 0-5v-2c0-.71 0-1.32-.05-1.84-.08-1.94-.12-2.79 1.45-4 .09-2.15-.09-9.17-1.14-10.44-.6.89-1 4.06-1.22 5.35h-3.6c.64-1.78-1.74-49.67-2.3-59.88-.1-1.77 0-1.93.15-2.43a9.61 9.61 0 0 0 .33-1.08c-.5-1.13-.59-.42-.75-1.74a7.5 7.5 0 0 1 0-1 3.17 3.17 0 0 0-.23-1.43 3 3 0 0 0-.24 1.42 7.7 7.7 0 0 1 0 1c-.16 1.26-.28.64-.75 1.74a.56.56 0 0 0 .09.32c.17.32.5 1 .38 3.49l-2.49 59.68-3.39-.11c-.21-1.58-.15-4.24-.94-5.35-1.35 1.78-1.54 7.92-1.44 10.47 1.58 1.16 1.54 2 1.45 4v8.82l-5.7 2.86-1.4 11.48H21.01a18.81 18.81 0 0 0 .59 1.79 8.41 8.41 0 0 1 .41 5.09L2 156.76V26.9q0-10.48 5.57-16.7T25.2 4h42.6q12.08 0 17.63 6.2T91 26.9zm-45.19 9.77c-1.31 1.13-.35 1.12-2.78 1.91.83 1.7.89 1 1 3.44l.71-.13a6.72 6.72 0 0 1 1.05-.14 13.1 13.1 0 0 1 1.75.27c.12-2.38.16-1.79 1-3.44-1.39-.46-1.35-.33-2.17-1.26l-.13-.16zm-5.74 81.94h2.69l-.09 12h-2.61zm11.5 0h-2.7v12h2.61zm-7.12 0l2.73.07-.06 11.88h-2.67zm11.84 18.19c-.86-.93-1.6.14-1.11 1.15 1.23.6 1.67-.53 1.11-1.14zm-19.49.58c0 1.11-.94.87-1.23.58-.75-.73-.25-1.71.94-1.28.14.23.21.1.25 0s0 .13 0 .59zm8.47.46a.7.7 0 0 0 1.12.12c.77-.76.24-1.64-.94-1.3-.08.04-.74.28-.18 1.19zm-1.39 1.59l4.07.13v5.35h-4.12zm13.88 0h-4l-.08 5.49h4.08zm-19.64 0H34v5.36l4.11.12zm8.68 10.63l44 10a36.74 36.74 0 0 1-.64 3.87c-1.82-1-4.42-.34-5.27 2.54v7.73a19.68 19.68 0 0 1-4.89 3.55v-14.26l-.31-.38c-.61-.82-.54-1.1-1.45-1.79a3.8 3.8 0 0 0-2.81-.8 4.23 4.23 0 0 0-3.61 3.54 131.28 131.28 0 0 0 0 14.44h6.66l-.25.11a29.61 29.61 0 0 1-11.83 2.07H26.62a29.58 29.58 0 0 1-11.83-2.07l-.33-.15h6.27c.23-1.46.25-13.82-.06-15-1.09-4-7-4.32-8 .73l-.19 13.21a19.66 19.66 0 0 1-4.63-3.57c0-2.36 0-4.86-.1-6.43-.13-3-2.61-4.67-4.94-3.65a35 35 0 0 1-.65-4.16c1.34-.27 2.44-.49 3-.62 1.44-.31 4.11-.93 7.45-1.71 12.06-2.7 32.58-7.46 34.19-7.15zm-6.87 17.73c0-1.66.06-3.27.06-4.74 0-4.45 1-8.92 6.39-8.87 5.6.06 6.2 5.15 6.2 9.16 0 1.24 0 2.72.07 4.29a85.6 85.6 0 0 1-.16 10.83L40 178.41c-.22-3.09-.15-6.94-.07-10.57zm17.5-2.11v3.42a67.44 67.44 0 0 0 .16 9.35h9.2c.34-2 .6-16.24-.5-18.31a4.61 4.61 0 0 0-8.08-.17 8 8 0 0 0-.74 4.54c-.05.49-.04.82-.04 1.22zm-31.65 12.79c-.27-2.23-.61-16.41.61-18.41a4.76 4.76 0 0 1 4.09-2.32c4.39 0 4.66 3.91 4.66 8v3.84c.05 3 .11 6.21-.1 8.92z" fill="#009ecc"/></svg>