<svg data-name="Слой 1" xmlns="http://www.w3.org/2000/svg" viewBox="0 0 100.33 100.67"><path d="M63.82 61.9l33.36 33.36a1.73 1.73 0 0 1 0 2.45 1.77 1.77 0 0 1-1.23.5 1.72 1.72 0 0 1-1.22-.5L61.38 64.36a35.58 35.58 0 1 1 2.44-2.46zM37.3 5.91A32.19 32.19 0 1 0 69.48 38.1 32.19 32.19 0 0 0 37.3 5.91z" fill="#333"/><path d="M63.82 61.9l33.36 33.36a1.73 1.73 0 0 1 0 2.45 1.77 1.77 0 0 1-1.23.5 1.72 1.72 0 0 1-1.22-.5L61.38 64.36a35.58 35.58 0 1 1 2.44-2.46zM37.3 5.91A32.19 32.19 0 1 0 69.48 38.1 32.19 32.19 0 0 0 37.3 5.91z" fill="none" stroke="#4a494a"/></svg>