<svg data-name="Слой 1" xmlns="http://www.w3.org/2000/svg" viewBox="0 0 316 204"><path d="M123.56 30.83C102.79 37 84.74 47.51 77.93 74.08a60.78 60.78 0 0 1 58.23 52.1c5.45 33.72-17.71 65-51.42 70.5-33.38 4.76-70.16-13.28-79-60.28C-2.79 69 46.25 13.46 119.13 5.63 121.86 5.29 122.2 7 122.2 7l3.06 21.11a2.47 2.47 0 0 1-1.7 2.72zm128.73 43.25c28.61 1.36 53.81 22.47 58.23 52.1a62.1 62.1 0 0 1-51.76 70.5c-33.72 4.76-70.15-13.28-78.67-59.94C170.9 69.31 220.28 13.8 293.16 5.63c2.72-.34 3.06 1.36 3.06 1.36l3.41 21.11a2.47 2.47 0 0 1-1.71 2.73c-21.11 6.17-38.48 16.68-45.63 43.25z" fill="none" stroke="#fff" stroke-width="2"/></svg>