<svg xmlns="http://www.w3.org/2000/svg" viewBox="0 0 70 70"><path d="M33.2 51.9V21.5c0-.2 0-.3-.1-.5l-5.2-7.8-.2-.2c-.4-.3-.9-.2-1.2.2L21.2 21c-.1.1-.1.3-.1.5V58c0 .5.4.9.8.9h10.5c.5 0 .8-.4.8-.9v-6.1c0 .1 0 .1 0 0zm-10.4-.8V22.7l3.5 1.3v27.1h-3.5zM24.6 19h5.1l1.3 2-4 1.5-3.8-1.5 1.4-2zm3.4 4.9l3.5-1.3v28.5H28V23.9zm-.8-8.7l1.4 2.1h-2.9l1.5-2.1zm-4.4 41.9v-4.3h8.8v4.3h-8.8zM48.1 12.1H38c-.5 0-.8.4-.8.9v44.9c0 .5.4.9.8.9h10.1c.5 0 .8-.4.8-.9V13c0-.5-.4-.9-.8-.9zm-.9 45h-8.4v-3.9H43c.5 0 .8-.4.8-.8s-.4-.8-.8-.8h-4.2V42H43c.5 0 .8-.4.8-.8s-.4-.8-.8-.8h-4.2v-9.6H43c.5 0 .8-.4.8-.8s-.3-1-.8-1h-4.2v-9.6H43c.5 0 .8-.4.8-.8s-.4-.9-.8-.9h-4.2v-3.8h8.4v43.2z"/></svg>