<svg data-name="Слой 1" xmlns="http://www.w3.org/2000/svg" viewBox="0 0 252 316"><defs><clipPath><path fill="none" d="M83 199.62h153v108H83z"/></clipPath></defs><g clip-path="url(#a)"><path d="M85.88 243.74a27.68 27.68 0 0 1 3.79-7.42l89.7-36.7c35.75 0 56.56 16.46 46 36.7a36.79 36.79 0 0 1-5.4 7.42c-7.13 7.61-18.86 14.47-30.38 21.1l-5.42 3.1q-8.17 4.68-16.59 9.39c-9.23 5.13-18.56 10.27-27.87 15.46q-9.5 5.25-19.18 10.48c-8 4.28-8.4 4.35-9.83 4.35-.9 0-1.6-.22-1.81-.6-.6-1.14-1.12-2.3-1.64-3.46-.36-.79-.71-1.59-1.09-2.38-1-2-1.89-4.07-2.81-6.11s-1.8-4.06-2.74-6.08c-1.22-2.66-2.39-5.33-3.55-8-1.6-3.72-3.18-7.44-4.86-11.13-.69-1.54-1.45-3.08-2.23-4.64-3.28-6.7-6.59-13.6-4.09-21.48zm39.14.33c1.74 5.55 10.2 9 22 9l33.37-9a24.28 24.28 0 0 0 8.08-7.76c5.3-9.25-4.08-16.78-20.81-16.78s-35.2 7.53-41.2 16.78c-1.74 2.75-2.26 5.43-1.46 7.76z" fill="#4a494a" fill-opacity=".53"/></g><path d="M110.83 3.62C53.19 3.62 6.29 50 6.29 106.92a102.17 102.17 0 0 0 2.13 20.85c4.63 22.08 17 41.6 29 60.47 2.78 4.37 5.54 8.72 8.17 13 6.31 10.38 12.48 20.85 18.64 31.33q6.63 11.32 13.35 22.56c3.41 5.7 6.75 11.37 10.11 17.12s6.72 11.48 10.14 17.19c1.33 2.22 2.62 4.47 3.92 6.7 1.9 3.27 3.77 6.53 5.77 9.74a3.84 3.84 0 0 0 3.15 1.69c2 0 2.53-.23 9.73-12.23q8.78-14.75 17.42-29.51c8.58-14.62 17.4-29.07 26.21-43.52q8-13.17 16-26.42c1.74-2.88 3.53-5.79 5.33-8.72 11.45-18.68 23.3-38 27.78-59.41a102.51 102.51 0 0 0 2.15-20.89C215.29 50 168.47 3.62 110.83 3.62zm44.3 99.76a42.75 42.75 0 1 1-42.75-42.76 42.75 42.75 0 0 1 42.75 42.76z" fill="#009ecc"/></svg>