<svg data-name="Слой 1" xmlns="http://www.w3.org/2000/svg" viewBox="0 0 70.53 103"><path d="M34.78 1.52A33.61 33.61 0 0 0 1.45 42C3 49.13 7 55.49 10.88 61.63c.91 1.43 1.8 2.84 2.66 4.25 2.05 3.38 4.06 6.79 6.07 10.2 1.44 2.44 2.88 4.92 4.39 7.33 1.11 1.85 2.2 3.71 3.29 5.57s2.19 3.74 3.3 5.6c.43.72.85 1.45 1.28 2.18.61 1.06 1.23 2.13 1.87 3.17a1.25 1.25 0 0 0 1 .55c.66 0 .82-.06 3.16-4q2.86-4.8 5.68-9.61c2.79-4.76 5.66-9.46 8.53-14.16 1.74-2.87 3.49-5.73 5.22-8.61.56-.93 1.15-1.88 1.73-2.83 3.73-6.08 7.59-12.37 9-19.34a33 33 0 0 0 .7-6.8A33.85 33.85 0 0 0 34.78 1.52zm.5 46.39A13.92 13.92 0 1 1 49.2 34a13.92 13.92 0 0 1-13.92 13.91z" fill="#009ecc"/></svg>