<svg data-name="Слой 1" xmlns="http://www.w3.org/2000/svg" viewBox="0 0 101 84"><g fill="#f99d21"><path d="M93.73 15.36H78.86v-8.5a3.15 3.15 0 0 0-3.16-3.13H25.3a3.14 3.14 0 0 0-3.16 3.13v8.5H7.28a3.16 3.16 0 0 0-3.17 3.14v32.82a3.16 3.16 0 0 0 3.17 3.14h15.28v21.18a3.15 3.15 0 0 0 3.17 3.13h49.54a3.15 3.15 0 0 0 3.17-3.13V54.46h15.28a3.16 3.16 0 0 0 3.17-3.14V18.5a3.15 3.15 0 0 0-3.16-3.14zm-65.26-4.61h44.06v5.36H28.47zm43.64 62.5H28.89v-32h43.22zm18.45-24.31H78.44V38.12A3.16 3.16 0 0 0 75.28 35H25.73a3.16 3.16 0 0 0-3.17 3.14v10.8H10.45V22.38h80.11z"/><path d="M64.56 54.77H36.43a3.13 3.13 0 1 1 0-6.26h28.13a3.13 3.13 0 1 1 0 6.26zM64.56 66H36.43a3.14 3.14 0 1 1 0-6.27h28.13a3.14 3.14 0 1 1 0 6.27z"/></g></svg>