<svg xmlns="http://www.w3.org/2000/svg" viewBox="0 0 308.46 193.84"><g data-name="Слой 2"><path d="M119.79 26.25C99 32.38 81 42.93 74.16 69.5a60.78 60.78 0 0 1 58.23 52.1c5.45 33.72-17.71 65.05-51.42 70.5-33.38 4.76-70.16-13.29-79-60.28C-6.56 64.39 42.48 8.88 115.36 1.05c2.73-.35 3.07 1.36 3.07 1.36l3.06 21.11a2.48 2.48 0 0 1-1.7 2.73zM248.52 69.5c28.61 1.36 53.81 22.47 58.23 52.1A62.1 62.1 0 0 1 255 192.1c-33.71 4.76-70.15-13.29-78.67-59.94-9.2-67.43 40.18-122.94 113.06-131.11 2.72-.35 3.06 1.36 3.06 1.36l3.41 21.11a2.48 2.48 0 0 1-1.71 2.73C273 32.38 255.67 42.93 248.52 69.5z" fill="none" stroke="#fff" stroke-width="2" data-name="Слой 1"/></g></svg>