<svg xmlns="http://www.w3.org/2000/svg" viewBox="0 0 70 70"><path d="M52.8 18.5l-10.4-5.2c-.2-.1-.5-.1-.8 0l-1.8.9c-2.6 1.3-5.6 1.3-8.1 0l-1.7-.9c-.2-.1-.5-.1-.8 0l-10.4 5.2c-.3.1-.5.4-.5.8v12.8c0 10.4 6 19.8 15.4 24.2l1.9.9c.1.1.2.1.4.1.1 0 .2 0 .3-.1l1.7-.8c9.3-4.4 15.3-13.8 15.3-24.2V19.3c0-.3-.2-.6-.5-.8zm-1.2 13.7c0 9.7-5.6 18.5-14.3 22.6l-1.3.7-1.5-.7c-8.8-4.1-14.4-13-14.4-22.7V19.8l9.5-4.8 1.4.7c3 1.5 6.6 1.5 9.7 0l1.4-.7 9.5 4.8v12.4z"/><path d="M40.8 29.9l-5.3 7.3-3.6-5c-.3-.3-.7-.4-1.1-.2-.4.3-.5.8-.3 1.2l4.3 5.9c.2.2.4.4.7.3.3 0 .5-.1.7-.3l6-8.2c.2-.4.2-.8-.2-1.1-.3-.3-.9-.3-1.2.1z"/></svg>