<svg xmlns="http://www.w3.org/2000/svg" viewBox="0 0 70 70"><path d="M10.9 33.5c1 0 1.8.5 2.4 1.3.9 1.1 2.2 1.8 3.6 1.8s2.7-.7 3.6-1.8c.2-.3.5-.6.8-.8 1.3-.9 3.1-.5 4 .8.3.3.5.6.9.9 2 1.5 4.9 1.1 6.4-.9.2-.3.5-.6.8-.8 1.3-.9 3.1-.5 4 .8.3.3.5.6.9.9 2 1.5 4.9 1.1 6.4-.9.2-.3.5-.6.8-.8 1.3-.9 3.1-.5 4 .8.9 1.1 2.2 1.8 3.6 1.8s2.8-.7 3.6-1.8c.6-.8 1.5-1.3 2.4-1.3.5 0 .8-.4.8-.9s-.4-.8-.8-.8c-1.4 0-2.8.7-3.6 1.8-.2.3-.5.6-.8.8-1.3.9-3.1.5-4-.8-.3-.3-.5-.6-.9-.9-.4-.3-.8-.5-1.2-.6-.1-7.4-6.2-13.4-13.6-13.4-7.5 0-13.5 6-13.6 13.4-.8.3-1.5.8-2.1 1.5-.6.8-1.5 1.3-2.4 1.3-1 0-1.9-.5-2.4-1.3-.9-1.1-2.2-1.8-3.6-1.8-.5 0-.8.4-.8.8-.1.5.3.9.8.9zM35 20.3c6.4 0 11.7 5.1 11.9 11.5-1.3 0-2.6.6-3.5 1.8-.2.3-.5.6-.8.8-1.3.9-3.1.5-4-.8-.3-.3-.5-.6-.9-.9-2-1.5-4.9-1.1-6.4.9-.2.3-.5.6-.8.8-1.3.9-3.1.5-4-.8-.3-.3-.5-.6-.9-.9-.8-.6-1.7-.9-2.6-.9.4-6.4 5.6-11.5 12-11.5zM59.1 42c-1.4 0-2.8.7-3.6 1.8-.2.3-.5.6-.8.8-1.3.9-3.1.5-4-.8-.3-.3-.5-.6-.9-.9-2-1.5-4.9-1.1-6.4.9-.2.3-.5.6-.8.8-1.3.9-3.1.5-4-.8-.3-.3-.5-.6-.9-.9-2-1.5-4.9-1.1-6.4.9-.2.3-.5.6-.8.8-1.3.9-3.1.5-4-.8-.3-.3-.5-.6-.9-.9-2-1.5-4.9-1.1-6.4.9-.6.8-1.5 1.3-2.4 1.3-1 0-1.8-.5-2.4-1.3-.9-1.1-2.2-1.8-3.6-1.8-.5 0-.8.4-.8.8s.4.8.8.8c1 0 1.8.5 2.4 1.3.9 1.1 2.2 1.8 3.6 1.8s2.7-.7 3.6-1.8c.2-.3.5-.6.8-.8 1.3-.9 3.1-.5 4 .8.3.3.5.6.9.9 2 1.5 4.9 1.1 6.4-.9.2-.3.5-.6.8-.8 1.3-.9 3.1-.5 4 .8.3.3.5.6.9.9 2 1.5 4.9 1.1 6.4-.9.2-.3.5-.6.8-.8 1.3-.9 3.1-.5 4 .8.9 1.1 2.2 1.7 3.6 1.8 1.4 0 2.7-.7 3.6-1.8.6-.8 1.4-1.3 2.4-1.3.5 0 .8-.4.8-.9.2-.3-.2-.7-.7-.7z"/></svg>