<svg xmlns="http://www.w3.org/2000/svg" viewBox="0 0 70 70"><path d="M58 49L41 15.1l-.3-.3c-.4-.3-1-.1-1.2.3l-9.3 18.5-4.4-8.9-.3-.3c-.4-.3-1-.1-1.2.3L12 49.1v.4c0 .5.4.9.8.9h44.3v-.1c.1 0 .3 0 .4-.1.5-.2.7-.7.5-1.2zM40.2 17.5L45 27l-1.1 1.1-3.4-3.4c-.3-.3-.9-.3-1.2 0l-1.6 1.6-1.2-1.2 3.7-7.6zM25 27.1l4.9 9.8h-.1l-1 1-2.6-2.6c-.3-.3-.9-.3-1.2 0l-1.9 1.9-2.1-2.1-.1-.1 4.1-7.9zM14.1 48.6l6-12 2.3 2.3c.3.3.9.3 1.2 0l1.9-1.8 2.6 2.6c.2.2.4.2.6.2.2 0 .4-.1.6-.3l1.3-1.3 5.1 10.2H14.1zm23.7 0l-6.5-13.1 4.4-8.8 1.4 1.4c.3.3.9.3 1.2 0l1.6-1.6 3.4 3.4c.2.2.4.3.6.2.2 0 .4-.1.6-.2l1.3-1.3 10 20.1h-18z"/></svg>