<svg xmlns="http://www.w3.org/2000/svg" viewBox="0 0 70 70"><path d="M53.8 24.8V19c0-.5-.4-.9-.8-.9H17c-.5 0-.8.4-.8.9v32c0 .5.4.9.8.9h36c.5 0 .8-.4.8-.9V25v-.2zm-1.7-.7h-7.3v-4.3h7.3v4.3zm-.1 1.8c-.4 1.6-1.8 2.8-3.5 2.8s-3.1-1.2-3.5-2.8h7zm-8.9-1.8h-7.2v-4.3h7.2v4.3zm-.1 1.8c-.4 1.6-1.8 2.8-3.5 2.8s-3.1-1.2-3.5-2.8h7zm-8.9-1.8h-7.3v-4.3h7.3v4.3zm-.1 1.8c-.4 1.6-1.8 2.8-3.5 2.8s-3.1-1.2-3.5-2.8h7zm-8.9-6.1v4.3h-7.3v-4.3h7.3zm-.1 6.1c-.4 1.6-1.8 2.8-3.5 2.8s-3.1-1.2-3.5-2.8h7zm13.8 24.3V35.1H46v15.1h-7.2zm9 0v-16c0-.5-.4-.8-.9-.8H38c-.5 0-.8.4-.8.8v16H17.9V28.9c1 .9 2.2 1.5 3.6 1.5 1.9 0 3.5-1 4.5-2.5.9 1.5 2.6 2.5 4.5 2.5s3.5-1 4.5-2.5c1 1.5 2.6 2.5 4.5 2.5s3.5-1 4.5-2.5c1 1.5 2.6 2.5 4.5 2.5 1.4 0 2.7-.6 3.7-1.5v21.3h-4.4z"/><path d="M32.5 33.4h-10c-.5 0-.8.4-.8.8v6.9c0 .5.4.9.8.9h10c.5 0 .8-.4.9-.8v-6.9c-.1-.5-.5-.9-.9-.9zm-.9 6.9h-8.3v-5.2h8.3v5.2z"/></svg>