<?xml version="1.0" encoding="utf-8"?>
<!-- Generator: Adobe Illustrator 22.0.1, SVG Export Plug-In . SVG Version: 6.00 Build 0)  -->
<svg version="1.1" id="Слой_1" xmlns="http://www.w3.org/2000/svg" xmlns:xlink="http://www.w3.org/1999/xlink" x="0px" y="0px"
	 viewBox="0 0 212 197.7" style="enable-background:new 0 0 212 197.7;" xml:space="preserve">
<style type="text/css">
	.st0{fill:#F99D21;}
	.st1{fill:#F99D21;stroke:#F99D21;stroke-width:2;}
	.st2{fill:#FFFFFF;stroke:#FFFFFF;stroke-miterlimit:10;}
	.st3{fill:#D0D0D0;stroke:#D0D0D0;stroke-width:2;}
</style>
<g>
	<path class="st0" d="M106,160.9l-61.8,32.5L56,124.6L6,75.9l69.1-10L106,3.2l30.9,62.6l69.1,10l-50,48.7l11.8,68.8L106,160.9z"/>
	<path class="st1" d="M106,160.9l-61.8,32.5L56,124.6L6,75.9l69.1-10L106,3.2l30.9,62.6l69.1,10l-50,48.7l11.8,68.8L106,160.9z"/>
	<rect x="106" y="1" class="st2" width="106" height="196.7"/>
</g>
<path class="st0" d="M106,160.9l-61.8,32.5L56,124.6L6,75.9l69.1-10L106,3.2l30.9,62.6l69.1,10l-50,48.7l11.8,68.8L106,160.9z"/>
<polygon class="st3" points="206,75.8 136.9,65.8 106,3.3 106,161 167.8,193.3 156,124.5 "/>
</svg>
