<svg data-name="Слой 1" xmlns="http://www.w3.org/2000/svg" viewBox="0 0 99.33 100"><defs><clipPath><path fill="none" d="M1.67 2h96v96h-96z"/></clipPath></defs><g clip-path="url(#a)"><path d="M11.08 2h77.17a9.45 9.45 0 0 1 9.42 9.41v77.18A9.45 9.45 0 0 1 88.25 98H11.08a9.44 9.44 0 0 1-9.41-9.41V11.41A9.44 9.44 0 0 1 11.08 2zm61.11 67.1h7c2 0 3-1 2.43-3s-2.91-4.85-5.93-8.25c-1.64-1.93-4.1-4-4.85-5.06-1-1.35-.74-1.94 0-3.14 0 0 8.58-12.07 9.47-16.17.45-1.49 0-2.59-2.13-2.59h-7a3.06 3.06 0 0 0-3.07 2s-3.57 8.72-8.64 14.39c-1.64 1.64-2.39 2.16-3.28 2.16-.45 0-1.1-.52-1.1-2V33.49c0-1.79-.52-2.59-2-2.59H42a1.7 1.7 0 0 0-1.79 1.62c0 1.69 2.54 2.09 2.8 6.86v10.36c0 2.27-.41 2.68-1.31 2.68-2.38 0-8.18-8.76-11.62-18.78-.68-1.95-1.36-2.74-3.15-2.74h-7c-2 0-2.41 1-2.41 2 0 1.86 2.38 11.11 11.1 23.33 5.82 8.35 14 12.88 21.47 12.88 4.47 0 5-1 5-2.74v-6.32c0-2 .43-2.41 1.84-2.41 1.05 0 2.84.52 7 4.55 4.79 4.81 5.58 6.91 8.26 6.91z" fill="#fff"/></g></svg>