<svg data-name="Слой 1" xmlns="http://www.w3.org/2000/svg" viewBox="0 0 106 114"><path fill="none" d="M5.42 5h95.16v103.91H5.42z"/><path fill="#fff" d="M35.45 45.72h-6.96l-.01-21.9L19.73 5h7.54l4.43 13.98 4.37-13.94h7.61l-8.22 18.77-.01 21.91zM65.48 42.83a4.11 4.11 0 0 0 1.59 1.82 4.89 4.89 0 0 0 2.71.69 4.46 4.46 0 0 0 2.53-.72 5.61 5.61 0 0 0 1.85-2.16L74 44.82h7.38V16.26h-5.77v22.23a2.43 2.43 0 0 1-4.84 0V16.26h-6v19.27c0 2.45 0 4.09.13 4.92a7.7 7.7 0 0 0 .58 2.38zM60.17 21.37a8.78 8.78 0 0 0-1.37-3 7 7 0 0 0-2.8-2.32 9.83 9.83 0 0 0-4.38-.9 8.33 8.33 0 0 0-5 1.41 7.18 7.18 0 0 0-2.72 3.7 22.11 22.11 0 0 0-.75 6.43v7.57a28.15 28.15 0 0 0 .41 5.63 8.48 8.48 0 0 0 1.39 3.2 5.77 5.77 0 0 0 2.72 2 12.08 12.08 0 0 0 4.26.65 9.76 9.76 0 0 0 4-.77 6.56 6.56 0 0 0 2.83-2.37 8.68 8.68 0 0 0 1.46-3.47 36.68 36.68 0 0 0 .34-5.84v-7.24a21.47 21.47 0 0 0-.39-4.68zM54.76 38a2.93 2.93 0 1 1-5.86 0V22.83a2.93 2.93 0 1 1 5.86 0zM85 51.57H21c-8.57 0-15.57 6-15.57 13.38v30.67C5.42 103 12.42 109 21 109h64c8.56 0 15.57-6 15.57-13.38V65c.01-7.41-7-13.43-15.57-13.43zM25.26 99h-6.62V66.55H12v-4.72h21.15v4.78h-7.89zm23.79 0h-5.31v-3.63c-1.42 2.8-7.13 5-10.11 3.09-1.6-1-1.54-2.87-1.7-4.44-.06-.57-.05-1.59 0-2.94V71.46h6.58V91.09a8.46 8.46 0 0 0 .05 2c.95 2.61 3.37 1.19 3.9-.15a5.85 5.85 0 0 0 .06-1.76V71.46h6.62zm9.87-2.61l-.5 2.3-5.42.02V61.86h6.61v10.68c6.1-4.43 10.6-1.15 10.6 4.32v14.37c.02 6.94-4.35 10.92-11.29 5.11zm15.29-7v-8.62a17.4 17.4 0 0 1 .84-6.07 7 7 0 0 1 2.77-3.41c4-2.63 11.94-1.81 12.76 3.33a58 58 0 0 1 .33 7.32v3.89H79.55v6.64a2.59 2.59 0 0 0 2.71 2.44h1A2.59 2.59 0 0 0 86 92.47V90v-.61h5c2.19 12.16-16.79 14.18-16.79-.06z"/><path d="M62.4 74c-1.58 0-2.88 1-2.88 2.16v16.09c0 1.19 1.3 2.16 2.88 2.16s2.9-1 2.9-2.16V76.13c0-1.19-1.3-2.13-2.9-2.13zM85.91 81.07h-6.26v-3.31a2.83 2.83 0 0 1 2.95-2.68h.4a2.84 2.84 0 0 1 3 2.68z" fill="#fff"/></svg>